<svg xmlns="http://www.w3.org/2000/svg" width="3780" height="1890" viewBox="0 0 2835 1417.5"><defs><clipPath id="d"><path d="M3 463h1808v174H3Zm0 0"/></clipPath><clipPath id="f"><path d="M0 0h2311v519H0Zm0 0"/></clipPath><clipPath id="g"><path d="M0 0h2312v519H0z"/></clipPath><clipPath id="h"><path d="M1404 42h874v503h-874Zm0 0"/></clipPath><clipPath id="c"><path d="M0 0h2312v637H0z"/></clipPath><filter id="a" width="100%" height="100%" x="0%" y="0%"><feColorMatrix color-interpolation-filters="sRGB" values="0 0 0 0 1 0 0 0 0 1 0 0 0 0 1 0 0 0 1 0"/></filter><filter id="b" width="100%" height="100%" x="0%" y="0%"><feColorMatrix color-interpolation-filters="sRGB" values="0 0 0 0 1 0 0 0 0 1 0 0 0 0 1 0.2126 0.7152 0.0722 0 0"/></filter><mask id="e"><g filter="url(#a)"><g filter="url(#b)" transform="matrix(.24 0 0 .24 3 463)"/></g></mask></defs><g clip-path="url(#c)" transform="translate(266 369)"><path fill="#1d5c9c" d="M72 580H34v-1h1q4 0 7-4l1-3v-67l-2-6-6-2h-1v-1h35q13 0 22 5 8 5 8 15l-2 10q-4 8-13 8 10 1 16 7t6 16q0 11-9 17t-25 6m8-62q0-17-16-17h-3v74h6q8 0 13-5 5-4 5-15 0-9-6-15-5-4-14-4v-1q6 0 11-4 4-4 4-13M125 579h2l5-2 2-4v-57l-2-5-5-2h-2v-1h35v1h-2l-5 2-2 4v58l2 4 5 2h2v1h-35ZM212 509a7 7 0 0 0-7 7v61q0 7-5 13-4 6-10 9l-15 2v-1q6-3 9-9t3-15v-60l-2-5-5-2h-1v-1h34v1ZM231 580zh2l4-2q3-1 2-4v-57q1-3-2-5l-4-2h-2v-1h34v1h-2l-4 2q-2 2-2 5v59h14q7 0 13-4 5-4 8-13h1l-5 22ZM309 579h1l5-2q3-2 2-4v-57q1-3-2-5l-5-2h-1v-1h34v1h-1l-5 2q-2 2-2 4v58q0 3 2 4l5 2h1v1h-34ZM443 580h-38v-1h2q4 0 6-4l1-3v-67l-2-6-5-2h-2v-1h35q14 0 22 5t9 15q-1 6-3 10-4 8-12 8 9 1 15 7t6 16q0 11-9 17t-25 6m8-62q0-17-15-17h-4v74h6q9 0 13-5 6-4 5-15 1-9-5-15-6-4-15-4v-1q7 0 11-4t4-13M578 579zv1h-33v-1h1l5-2 2-4v-26h-32v26l2 4 5 2h1v1h-33v-1h1a7 7 0 0 0 7-6v-57l-2-5-5-2h-1v-1h33v1h-1l-5 2-2 4v27h32v-26q0-4-4-6l-3-1h-1v-1h33v1h-1l-5 2-2 5v57q0 3 3 5zM598 579h2l5-2 2-4v-57l-2-5-5-2h-2v-1h35v1h-2l-5 2-2 4v58l2 4 5 2h2v1h-35ZM653 593q6-2 6-8l-3-6q-3-3-3-7l3-6 5-2q6 0 9 6l1 5-2 11q-6 8-13 8zM772 580h-38v-1h1q4 0 7-4l1-3v-67l-2-6-6-2h-1v-1h35q13 0 22 5 8 5 8 15l-2 10q-4 8-13 8 10 1 16 7t6 16q0 11-9 17t-25 6m8-62q0-17-15-17h-4v74h6q8 0 13-5 5-4 5-15 0-9-6-15-5-4-14-4v-1q6 0 11-4 4-4 4-13M906 579h2v1h-34v-1h2l4-2q3-1 2-4v-26h-31v26q0 3 2 4l4 2h2v1h-34v-1h2a7 7 0 0 0 6-6v-57q1-3-2-5l-4-2h-2v-1h34v1h-2l-4 2q-2 2-2 4v27h31v-26q0-4-3-6l-3-1h-2v-1h34v1h-2l-4 2q-2 2-2 5v57q0 3 3 5zM1003 579h1v1h-35v-1h1l3-1 1-3v-3l-5-11h-25l-5 12-1 2 1 3 4 1h1v1h-24v-1h1l5-1 4-5 25-54 5-14h2l32 67q1 4 4 5 3 3 5 2m-57-22h21l-11-26ZM1092 509zl-5 2-4 4-24 52-6 15h-1l-32-66q-3-7-9-7h-1v-1h35v1h-1l-3 2-1 2v3l17 39 17-39 1-3-1-2-4-2h-1v-1h24ZM1104 579h2l4-2 3-4v-57q0-3-3-5l-4-2h-2v-1h34v1h-1l-5 2-2 4v58l2 4 5 2h1v1h-34ZM1159 570q0-7 4-13h1v2q-1 7 5 12 4 6 15 6 6 0 10-3l4-7-2-6-7-6-18-11q-10-6-10-17v-2q0-8 6-14 6-5 14-5l17 1h7l-2 16h-1q0-4-4-9-4-3-10-3-7 0-11 3-3 3-3 7t3 6l5 3 19 12q9 6 10 17 0 11-8 17t-21 6l-13-2q-6-2-9-5zM1312 579h2v1h-34v-1h2l4-2q3-1 2-4v-26h-32v26l3 4 4 2h1v1h-33v-1h1a7 7 0 0 0 7-6v-57l-2-5-5-2h-1v-1h33v1h-1l-4 2-3 4v27h32v-26q0-4-3-6l-3-1h-2v-1h34v1h-2l-4 2q-2 2-2 5v57q0 3 3 5zM1410 509h-2l-6 2-5 4-21 33v25l2 4 5 2h1v1h-34v-1h2l5-2 2-4v-25l-22-33a13 13 0 0 0-10-6h-2v-1h37v1h-1l-4 2-1 2 1 2 16 28 16-28v-2l-1-2q0-2-3-2h-1v-1h26ZM1497 579zv1h-35v-1l4-1 1-3v-3l-5-11h-26l-4 12-1 2 1 3 4 1h1v1h-24v-1h1l5-1 4-5 25-54 5-14h1l33 67q1 4 4 5 2 3 5 2m-58-22h22l-11-26ZM1590 580h-38v-1h2q5 0 6-4l2-3v-67l-3-6-5-2h-2v-1h35q15 0 22 5 9 5 9 15l-2 10q-4 8-13 8 9 1 15 7t6 16q0 11-9 17t-25 6m9-62q-1-17-16-17h-3v74h5q9 0 14-5 5-4 5-15 0-9-6-15-5-4-14-4v-1q6 0 10-4t5-13M1725 579h1v1h-33v-1h1l5-2 2-4v-26h-32v26l2 4 5 2h1v1h-33v-1h1a7 7 0 0 0 7-6v-57l-2-5-5-2h-1v-1h33v1h-1l-5 2-2 4v27h32v-26q0-4-3-6l-4-1h-1v-1h33v1h-1l-5 2-2 5v57q0 3 4 5zM1746 579h1l5-2 2-4v-57l-2-5-5-2h-1v-1h34v1h-2l-4 2-3 4v58l3 4 4 2h2v1h-34Zm0 0"/><g clip-path="url(#f)"><g clip-path="url(#g)"><path fill="#81a969" fill-opacity=".4" d="M223 33v68H104v68h110v68H104v136H26V33Zm0 0"/><path fill="#81a969" fill-opacity=".4" d="M291 162v100q0 32 9 45t32 13 32-13 10-45V162h73v118q0 53-27 76-28 24-88 24t-87-24q-27-23-27-76V162Zm0 0"/><path fill="#81a969" fill-opacity=".4" d="M461 44q12-13 30-13t31 13 13 30-13 31-31 12q-18 0-30-12-13-13-13-31t13-30m-7 118v230q0 29-21 29l-8-2-8-3-2-1-23 59 5 2 7 3 8 3 10 2 28 3q21 0 37-7 15-8 24-20a91 91 0 0 0 16-54V162Zm0 0"/><path fill="#81a969" fill-opacity=".4" d="M544 44q13-13 31-13t31 13q12 12 12 30t-12 31-31 12q-18 0-31-12-12-13-12-31t12-30m-7 118v211h74V162Zm0 0"/><path fill="#81a969" fill-opacity=".4" d="M636 162V83h73v79h44v55h-44v68q0 29 16 29l9-2 7-3 2-2 19 59a108 108 0 0 1-90 6q-14-6-22-19-8-12-11-26-3-13-3-28v-82h-31v-55Zm0 0"/><path fill="#81a969" fill-opacity=".4" d="M962 278H808q0 23 15 33 14 10 31 10 18 0 28-4 10-6 24-19l52 26q-33 56-109 56-49 0-82-33-35-33-35-79 0-47 35-80 33-33 82-33 50 0 82 30 31 29 31 83zm-152-41h81q-3-16-13-25-11-9-27-9-18 0-29 9-11 10-12 25m0 0"/><path fill="#81a969" fill-opacity=".4" d="m1200 162-101 101 110 110h-94l-84-84v84h-73V18h73v218l74-74ZM1385 27q27 0 54 8 27 7 39 16l13 8-32 62-10-7-25-10q-18-7-34-7-19 0-30 8-10 9-10 23 0 7 5 13t17 13a265 265 0 0 0 49 23q33 14 56 38 24 24 23 55 0 29-10 51-11 22-29 34-18 13-41 19-22 6-48 6a211 211 0 0 1-123-41l-5-4 39-66 14 11q8 6 30 17 23 11 39 11 49 0 49-34 0-6-3-13-4-6-12-12l-16-9-45-22q-31-15-48-38a81 81 0 0 1-17-49q0-46 34-75 33-29 77-29M1794 373V18h73v355Zm0 0"/><path fill="#81a969" fill-opacity=".4" d="M1892 347q-30-32-30-79t30-80 75-33q43 0 70 27v-20h73v211h-72v-24h-1a89 89 0 0 1-70 31q-45 0-75-33m62-115q-14 14-14 36 0 21 13 35 14 15 36 14a47 47 0 0 0 49-49 48 48 0 0 0-49-50q-21 0-35 14M2121 373V162h73v30l3-4a101 101 0 0 1 40-29q11-3 22-4a86 86 0 0 1 41 10l5 4-30 62q-14-12-38-12-13 0-23 6t-13 14l-6 14-1 9v111Zm0 0"/><path fill="#1d5c9c" d="M223 33v68H104v68h110v68H104v136H26V33Zm0 0"/><path fill="#1d5c9c" d="M291 162v100q0 32 9 45t32 13 32-13 10-45V162h73v118q0 53-27 76-28 24-88 24t-87-24q-27-23-27-76V162Zm0 0"/><path fill="#1d5c9c" d="M461 44q12-13 30-13t31 13 13 30-13 31-31 12q-18 0-30-12-13-13-13-31t13-30m-7 118v230q0 29-21 29l-8-2-8-3-2-1-23 59 5 2 7 3 8 3 10 2 28 3q21 0 37-7 15-8 24-20a91 91 0 0 0 16-54V162Zm0 0"/><path fill="#1d5c9c" d="M544 44q13-13 31-13t31 13q12 12 12 30t-12 31-31 12q-18 0-31-12-12-13-12-31t12-30m-7 118v211h74V162Zm0 0"/><path fill="#1d5c9c" d="M636 162V83h73v79h44v55h-44v68q0 29 16 29l9-2 7-3 2-2 19 59a108 108 0 0 1-90 6q-14-6-22-19-8-12-11-26-3-13-3-28v-82h-31v-55Zm0 0"/><path fill="#1d5c9c" d="M962 278H808q0 23 15 33 14 10 31 10 18 0 28-4 10-6 24-19l52 26q-33 56-109 56-49 0-82-33-35-33-35-79 0-47 35-80 33-33 82-33 50 0 82 30 31 29 31 83zm-152-41h81q-3-16-13-25-11-9-27-9-18 0-29 9-11 10-12 25m0 0"/><path fill="#1d5c9c" d="m1200 162-101 101 110 110h-94l-84-84v84h-73V18h73v218l74-74ZM1385 27q27 0 54 8 27 7 39 16l13 8-32 62-10-7-25-10q-18-7-34-7-19 0-30 8-10 9-10 23 0 7 5 13t17 13a265 265 0 0 0 49 23q33 14 56 38 24 24 23 55 0 29-10 51-11 22-29 34-18 13-41 19-22 6-48 6a211 211 0 0 1-123-41l-5-4 39-66 14 11q8 6 30 17 23 11 39 11 49 0 49-34 0-6-3-13-4-6-12-12l-16-9-45-22q-31-15-48-38a81 81 0 0 1-17-49q0-46 34-75 33-29 77-29M1794 373V18h73v355Zm0 0"/><path fill="#1d5c9c" d="M1892 347q-30-32-30-79t30-80 75-33q43 0 70 27v-20h73v211h-72v-24h-1a89 89 0 0 1-70 31q-45 0-75-33m62-115q-14 14-14 36 0 21 13 35 14 15 36 14a47 47 0 0 0 49-49 48 48 0 0 0-49-50q-21 0-35 14M2121 373V162h73v30l3-4a101 101 0 0 1 40-29q11-3 22-4a86 86 0 0 1 41 10l5 4-30 62q-14-12-38-12-13 0-23 6t-13 14l-6 14-1 9v111Zm0 0"/></g></g><g clip-path="url(#h)"><path fill="#ffb800" d="M1800 389h477l-528-48a104 104 0 1 1-7-107l76-61-56 31 66-95-92 75 27-61-41 50 27-113-58 102 3-65-21 63-16-118-16 116-21-60 4 66-58-104 26 113-40-48 27 60-93-76 67 96-55-30 46 46-114-38 97 66-62-8 60 26-120 5 116 28-62 15 63 2-109 48 120-17-53 37 58-20-83 83 106-59-37 55 47-39-47 106 78-95-15 66 29-52-5 115 39-118 10 68 8-58 36 108-6-125 34 61-13-56 71 86-50-114 55 45-34-48 98 54z"/></g></g></svg>