<svg xmlns="http://www.w3.org/2000/svg" width="3780" height="1890" viewBox="0 0 2835 1417.5"><defs><clipPath id="c"><path d="M1 0h2834v1417H1Zm0 0"/></clipPath><clipPath id="e"><path d="M1 0h2834v1417H1Zm0 0"/></clipPath><clipPath id="g"><path d="M1 366h2830v639H1Zm0 0"/></clipPath><clipPath id="h"><path d="M0 0h2831v639H0z"/></clipPath><clipPath id="i"><path d="M1714 418h1075v618H1714Zm0 0"/></clipPath><clipPath id="d"><path d="M0 0h2835v1417H0z"/></clipPath><filter id="a" width="100%" height="100%" x="0%" y="0%"><feColorMatrix color-interpolation-filters="sRGB" values="0 0 0 0 1 0 0 0 0 1 0 0 0 0 1 0 0 0 1 0"/></filter><filter id="b" width="100%" height="100%" x="0%" y="0%"><feColorMatrix color-interpolation-filters="sRGB" values="0 0 0 0 1 0 0 0 0 1 0 0 0 0 1 0.2126 0.7152 0.0722 0 0"/></filter><mask id="f"><g filter="url(#a)"><g filter="url(#b)" transform="matrix(.24 0 0 .24 38 936)"/></g></mask></defs><g clip-path="url(#c)"><path fill="#fff" d="M1 0h2834v1417H1Zm0 0"/><g clip-path="url(#d)"><g clip-path="url(#e)"><path fill="#fff" d="M1 0h2834v1417H1Zm0 0"/></g><path fill="#1d5c9c" d="M84 1080H48v-2h2q3 1 6-2t3-7v-82q0-4-3-7-2-3-6-3h-2v-1h29q16 0 24 7 9 6 9 18a23 23 0 0 1-17 22q12 3 19 10 7 8 7 20t-10 19-25 8m-15-5h15q11 0 17-7 6-6 6-17 1-6-2-11l-5-8q-8-7-26-7v-1h1l4-1 5-1 6-2 4-4q4-4 4-15 1-9-5-15-6-5-16-5h-8ZM150 1078q4 1 7-2 3-2 3-6v-70q0-3-3-5-3-3-7-3h-2v-1h34v1h-2q-4 0-7 3l-4 5v71l4 5q3 3 7 2h2v2h-34v-2ZM242 992q-5 1-8 4l-1 4v80q0 10-8 19-9 7-19 7v-1q7-3 12-10t5-15v-80l-3-6-6-2h-2v-1h32v1ZM274 1078q3 1 6-2l2-5v-71l-2-5q-3-3-7-3h-1v-1h30v1h-1q-4 0-7 3l-2 5v75h23q6 1 12-2l7-6 5-8h1l-8 21h-60v-2ZM367 1078q4 1 7-2 3-2 3-6v-70q0-3-3-5-3-3-7-3h-2v-1h34v1h-2q-4 0-7 3-3 2-3 5v71q0 3 3 5 3 3 7 2h2v2h-34v-2ZM517 1080h-36v-2h2q3 1 6-2t3-7v-82q0-4-3-7l-6-3h-2v-1h29q15 0 24 7 9 6 8 18a23 23 0 0 1-16 22q12 3 19 10 6 8 6 20t-9 19-25 8m-15-5h15q11 0 17-7 6-6 6-17 1-6-2-11l-5-8q-9-7-26-7v-1h1l4-1 5-1 6-2 4-4q4-4 4-15 0-9-5-15-6-5-16-5h-8ZM647 1078q3 1 6-2l2-5v-33h-54v33l2 5q3 3 6 2h2v2h-30v-2h2q3 1 6-2l2-6v-70l-2-5-6-3h-2v-1h30v1h-2l-6 3-2 5v34h54v-34l-1-5-7-3h-2v-1h30v1h-1q-4 0-6 3-3 2-3 5v71l2 4q3 3 7 3h1v2h-30v-2ZM708 1078q3 1 7-2 3-2 3-6v-70q0-3-3-5-3-3-8-3h-2v-1h34v1h-2q-4 0-7 3-3 2-3 5v71q0 3 3 5 3 3 7 2h2v2h-34v-2ZM768 1092l5-4 2-3q0-4-3-7l-3-4v-4q2-3 5-3 5 0 6 4 3 4 2 7 0 8-5 12l-9 3ZM899 1080h-36v-2h1q4 1 7-2t3-7v-82q0-4-3-7t-7-3h-1v-1h29q15 0 24 7 8 6 8 18a23 23 0 0 1-16 22q12 3 18 10 7 8 7 20t-9 19-25 8m-15-5h14q12 0 18-7 6-6 6-17l-2-11-5-8q-9-7-26-7v-1h1l4-1 5-1 5-2 5-4q4-4 4-15 0-9-5-15-6-5-17-5h-7ZM1029 1078q3 1 6-2l2-5v-33h-54v33l2 5q3 3 6 2h2v2h-30v-2h1q4 1 6-2 3-2 3-6v-70q0-3-3-5-2-3-6-3h-1v-1h30v1h-2l-6 3-2 5v34h54v-34q0-3-2-5l-6-3h-2v-1h30v1h-2l-6 3-2 5v71l2 4 6 3h2v2h-30v-2ZM1177 1078h1v2h-30v-2h1q3 1 4-2l2-3-1-4-8-19h-37l-9 19v4l1 3q2 3 5 2h1v2h-29v-2h2q3 1 6-2 3-1 5-6l37-81h1l37 81q4 9 11 8m-67-33h34l-16-40ZM1291 992h-1l-7 2-5 7-37 81h-1l-36-81q-5-9-12-9h-1v-1h30v1h-1l-4 2-2 4 1 3 26 65 28-64 1-4-2-4-4-2h-1v-1h28ZM1314 1078q4 1 7-2 3-2 3-6v-70q0-3-3-5-3-3-7-3h-2v-1h34v1h-2q-4 0-7 3-3 2-3 5v71q0 3 3 5 3 3 7 2h2v2h-34v-2ZM1376 1075v-7q-1-6 2-11h2l-1 2q0 9 6 13 5 6 14 6 10 0 16-5 5-4 5-12 0-7-5-12l-30-23q-7-6-7-16 0-5 3-11 3-4 9-7t13-3l14 1h5v16h-1q0-6-5-9-5-4-12-4-8 1-13 4-6 5-5 11 0 6 5 11l30 23q7 6 7 16t-7 17q-9 7-19 7l-15-2zM1524 1078q4 1 6-2 3-2 3-5v-33h-55v33q0 3 3 5 3 3 6 2h2v2h-31v-2h2q3 1 6-2 3-2 3-6v-70q0-3-3-5l-6-3h-2v-1h31v1h-2l-6 3q-3 2-3 5v34h55v-34l-2-5q-3-3-7-3h-1v-1h30v1h-2l-6 3q-2 2-3 5v71l2 4 7 3h2v2h-30v-2ZM1671 992h-2l-8 2-6 6-28 43v27q-1 4 2 6 3 3 6 2h2v2h-30v-2h1q4 1 6-2 3-2 3-6v-27l-28-43q-4-8-13-8h-2v-1h34v1h-1l-4 2-2 3 1 2 21 39 23-38 1-3-1-3-5-2h-1v-1h31ZM1782 1078zv2h-31v-2h2q3 1 4-2l1-3v-4l-8-19h-38l-8 19-1 4 2 3q1 3 4 2h1v2h-28v-2h1q3 1 6-2 4-1 6-6l36-81h2l36 81q5 9 12 8m-67-33h34l-17-40ZM1892 1080h-36v-2h2q4 1 7-2l2-7v-82q1-4-2-7t-7-3h-2v-1h30q15 0 23 7 9 6 9 18a23 23 0 0 1-17 22q12 3 19 10 7 8 7 20t-9 19-26 8m-15-5h15q11 0 17-7 7-6 7-17l-2-11-6-8q-8-7-26-7v-1h2l3-1 6-1 5-2 4-4q5-4 5-15 0-9-6-15-6-5-16-5h-8ZM2022 1078q3 1 6-2 3-2 3-5v-33h-55v33q0 3 3 5 2 3 6 2h1v2h-30v-2h2q3 1 6-2l3-6v-70q-1-3-3-5l-6-3h-2v-1h30v1h-1q-4 0-6 3-3 2-3 5v34h55v-34l-2-5q-3-3-7-3h-2v-1h31v1h-2l-6 3q-3 2-3 5v71l2 4q4 3 7 3h2v2h-31v-2ZM2083 1078q4 1 7-2 3-2 3-6v-70q0-3-3-5-3-3-7-3h-2v-1h33v1h-2q-4 0-6 3l-4 5v71q0 3 3 5 4 3 7 2h2l1 2h-34v-2Zm0 0"/><g clip-path="url(#g)"><g clip-path="url(#h)" transform="translate(0 366)"><path fill="#81a969" fill-opacity=".4" d="M261 40v84H114v83h135v84H114v168H18V40Zm0 0"/><path fill="#81a969" fill-opacity=".4" d="M343 199v124q0 38 12 54 12 17 40 17 27 0 39-17 12-16 12-54V199h90v145q0 66-34 94-33 29-107 29t-108-29-34-94V199Zm0 0"/><path fill="#81a969" fill-opacity=".4" d="M553 53q15-15 37-15t38 15 16 38q-1 22-16 37a51 51 0 0 1-38 16q-22 0-37-16a51 51 0 0 1-16-37q0-22 16-38m-9 146v283q0 36-25 36l-11-2-9-4-3-2-28 73 7 3 8 4 22 6 35 3q25 0 45-9 18-9 29-24a112 112 0 0 0 20-67V199Zm0 0"/><path fill="#81a969" fill-opacity=".4" d="M656 53q15-15 37-15t38 15 16 38q-1 22-16 37a51 51 0 0 1-38 16q-22 0-37-16a51 51 0 0 1-16-37q0-22 16-38m-9 146v260h90V199Zm0 0"/><path fill="#81a969" fill-opacity=".4" d="M768 199v-97h90v97h55v68h-55v83q0 36 20 36l11-2 9-4 3-2 22 73a133 133 0 0 1-110 7q-18-9-27-24-10-15-14-31-4-17-4-36V267h-38v-68Zm0 0"/><path fill="#81a969" fill-opacity=".4" d="M1169 341H980q0 28 18 41t39 13q22 0 34-6 13-6 29-23l65 33q-40 68-135 68-59 0-101-41-42-40-42-97t42-97 101-41q62 0 101 36t39 102zm-186-49h99q-3-21-16-32t-33-11q-22 0-36 12-13 12-14 31m0 0"/><path fill="#81a969" fill-opacity=".4" d="m1462 199-124 124 136 136h-116l-104-104v104h-90V22h90v268l91-91ZM1690 32q34 1 67 10 31 10 48 20l15 10-38 76-13-8-31-13q-22-8-41-8-24 0-37 11-13 9-13 27 0 9 6 16t21 16a332 332 0 0 0 60 28q41 18 70 47 28 30 28 68 0 36-13 63-12 27-35 42t-50 22-60 8a259 259 0 0 1-130-36l-21-14-6-6 48-80 16 13 38 21q27 13 48 13 61 0 61-41 0-8-5-16-4-8-15-14l-19-12-56-27q-38-18-59-47-21-28-21-61 0-56 42-92t95-36M2193 459V22h90v437Zm0 0"/><path fill="#81a969" fill-opacity=".4" d="M2314 427q-36-40-37-98 1-57 37-98 36-40 93-40 52 0 85 32v-24h90v260h-89v-29h-1q-33 37-85 37-57 0-93-40m76-142a59 59 0 0 0-17 44q0 27 17 44t44 17a58 58 0 0 0 60-61 59 59 0 0 0-60-61q-26-1-44 17M2595 459V199h90v37h1l4-5a124 124 0 0 1 48-35q14-5 28-5a105 105 0 0 1 50 12l7 4-38 76q-16-14-46-14-16 0-28 7t-17 18l-7 17-2 11v137Zm0 0"/><path fill="#1d5c9c" d="M261 40v84H114v83h135v84H114v168H18V40Zm0 0"/><path fill="#1d5c9c" d="M343 199v124q0 38 12 54 12 17 40 17 27 0 39-17 12-16 12-54V199h90v145q0 66-34 94-33 29-107 29t-108-29-34-94V199Zm0 0"/><path fill="#1d5c9c" d="M553 53q15-15 37-15t38 15 16 38q-1 22-16 37a51 51 0 0 1-38 16q-22 0-37-16a51 51 0 0 1-16-37q0-22 16-38m-9 146v283q0 36-25 36l-11-2-9-4-3-2-28 73 7 3 8 4 22 6 35 3q25 0 45-9 18-9 29-24a112 112 0 0 0 20-67V199Zm0 0"/><path fill="#1d5c9c" d="M656 53q15-15 37-15t38 15 16 38q-1 22-16 37a51 51 0 0 1-38 16q-22 0-37-16a51 51 0 0 1-16-37q0-22 16-38m-9 146v260h90V199Zm0 0"/><path fill="#1d5c9c" d="M768 199v-97h90v97h55v68h-55v83q0 36 20 36l11-2 9-4 3-2 22 73a133 133 0 0 1-110 7q-18-9-27-24-10-15-14-31-4-17-4-36V267h-38v-68Zm0 0"/><path fill="#1d5c9c" d="M1169 341H980q0 28 18 41t39 13q22 0 34-6 13-6 29-23l65 33q-40 68-135 68-59 0-101-41-42-40-42-97t42-97 101-41q62 0 101 36t39 102zm-186-49h99q-3-21-16-32t-33-11q-22 0-36 12-13 12-14 31m0 0"/><path fill="#1d5c9c" d="m1462 199-124 124 136 136h-116l-104-104v104h-90V22h90v268l91-91ZM1690 32q34 1 67 10 31 10 48 20l15 10-38 76-13-8-31-13q-22-8-41-8-24 0-37 11-13 9-13 27 0 9 6 16t21 16a332 332 0 0 0 60 28q41 18 70 47 28 30 28 68 0 36-13 63-12 27-35 42t-50 22-60 8a259 259 0 0 1-130-36l-21-14-6-6 48-80 16 13 38 21q27 13 48 13 61 0 61-41 0-8-5-16-4-8-15-14l-19-12-56-27q-38-18-59-47-21-28-21-61 0-56 42-92t95-36M2193 459V22h90v437Zm0 0"/><path fill="#1d5c9c" d="M2314 427q-36-40-37-98 1-57 37-98 36-40 93-40 52 0 85 32v-24h90v260h-89v-29h-1q-33 37-85 37-57 0-93-40m76-142a59 59 0 0 0-17 44q0 27 17 44t44 17a58 58 0 0 0 60-61 59 59 0 0 0-60-61q-26-1-44 17M2595 459V199h90v37h1l4-5a124 124 0 0 1 48-35q14-5 28-5a105 105 0 0 1 50 12l7 4-38 76q-16-14-46-14-16 0-28 7t-17 18l-7 17-2 11v137Zm0 0"/></g></g><g clip-path="url(#i)"><path fill="#ffb800" d="M2200 844h588l-649-58a128 128 0 1 1-9-133l93-75-68 38 80-117-112 94 32-76-50 62 33-140-71 127 3-81-25 77-20-144-20 142-25-74 4 81-72-128 33 140-50-60 34 75-114-95 81 119-67-37 57 57-140-47 120 82-77-11 73 32-147 7 142 33-76 19 78 3-134 59 147-21-65 46 72-25-103 103 131-73-45 67 57-48-58 131 97-117-19 81 35-64-6 141 48-145 13 84 9-71 44 132-7-153 43 75-17-70 88 107-62-140 67 54-41-59 121 68z"/></g></g></g></svg>