<svg xmlns="http://www.w3.org/2000/svg" width="500" height="500" viewBox="0 0 375 375"><defs><clipPath id="b"><path d="M78 172h214v130H78Zm0 0"/></clipPath><clipPath id="c"><path d="M165 106h183v33H165Zm0 0"/></clipPath><clipPath id="d"><path d="M84 2h274v141H84Zm0 0"/></clipPath><clipPath id="e"><path d="m148 112-64-10 42 16q15 6 25-4a92 92 0 0 1 142 20q5 9 17 8l33-3-45-5c-4 0-5-7-1-8l61-24-65 10c-4 1-7-5-3-7l37-27-42 18c-4 2-7-3-5-6l41-51-51 41c-3 3-8-1-6-5l18-41-27 36c-2 3-8 1-7-3l10-65-24 61c-2 4-8 4-8-1l-5-45-5 45c0 4-7 5-8 1L184 2l10 65c1 4-5 7-7 3l-27-36 18 41c2 4-3 7-6 5l-51-41 41 51c3 3-1 8-5 6l-42-18 37 27c3 2 1 8-4 7m0 0"/></clipPath><clipPath id="f"><path d="m148 112-64-10 42 16q15 6 25-4a92 92 0 0 1 142 20q5 9 17 8l33-3-45-5c-4 0-5-7-1-8l61-24-65 10c-4 1-7-5-3-7l37-27-42 18c-4 2-7-3-5-6l41-51-51 41c-3 3-8-1-6-5l18-41-27 36c-2 3-8 1-7-3l10-65-24 61c-2 4-8 4-8-1l-5-45-5 45c0 4-7 5-8 1L184 2l10 65c1 4-5 7-7 3l-27-36 18 41c2 4-3 7-6 5l-51-41 41 51c3 3-1 8-5 6l-42-18 37 27c3 2 1 8-4 7"/></clipPath><clipPath id="g"><path d="M359 2 84 1l-1 142 275 1Zm0 0"/></clipPath><clipPath id="i"><path d="M1 96h264v87H1Zm0 0"/></clipPath><clipPath id="j"><path d="M1 169c142 60 164-98 264-54-106-73-126 92-264 54m0 0"/></clipPath><clipPath id="k"><path d="M1 169c142 60 164-98 264-54-106-73-126 92-264 54"/></clipPath><clipPath id="a"><path d="M0 0h359v303H0z"/></clipPath><linearGradient id="h" x1="0" x2=".6" y1="0" y2="0" gradientTransform="matrix(-.81 237.5 -238.36 -.8 221 4)" gradientUnits="userSpaceOnUse"><stop offset="0" stop-color="#f6f127"/><stop offset="0" stop-color="#f6f127"/><stop offset="0" stop-color="#f6f125"/><stop offset="0" stop-color="#f7f124"/><stop offset="0" stop-color="#f7f122"/><stop offset="0" stop-color="#f7f121"/><stop offset="0" stop-color="#f7f020"/><stop offset="0" stop-color="#f8f01f"/><stop offset="0" stop-color="#f8ef1d"/><stop offset="0" stop-color="#f8ef1c"/><stop offset=".1" stop-color="#f8ee1c"/><stop offset=".1" stop-color="#f8ed1b"/><stop offset=".1" stop-color="#f8ed1b"/><stop offset=".1" stop-color="#f8ec1a"/><stop offset=".1" stop-color="#f8eb1a"/><stop offset=".1" stop-color="#f8ea19"/><stop offset=".1" stop-color="#f8e918"/><stop offset=".1" stop-color="#f8e917"/><stop offset=".1" stop-color="#f8e817"/><stop offset=".1" stop-color="#f8e716"/><stop offset=".1" stop-color="#f9e615"/><stop offset=".1" stop-color="#f9e515"/><stop offset=".1" stop-color="#f9e415"/><stop offset=".1" stop-color="#f9e315"/><stop offset=".1" stop-color="#f9e214"/><stop offset=".1" stop-color="#f9e114"/><stop offset=".1" stop-color="#f9e013"/><stop offset=".1" stop-color="#f9e013"/><stop offset=".1" stop-color="#f9df13"/><stop offset=".1" stop-color="#f8de12"/><stop offset=".1" stop-color="#f8dd12"/><stop offset=".1" stop-color="#f8dc12"/><stop offset=".2" stop-color="#f8db12"/><stop offset=".2" stop-color="#f8da12"/><stop offset=".2" stop-color="#f8d910"/><stop offset=".2" stop-color="#f8d810"/><stop offset=".2" stop-color="#f8d80f"/><stop offset=".2" stop-color="#f9d70f"/><stop offset=".2" stop-color="#f9d60e"/><stop offset=".2" stop-color="#f9d50e"/><stop offset=".2" stop-color="#f9d40e"/><stop offset=".2" stop-color="#f9d40e"/><stop offset=".2" stop-color="#f9d30e"/><stop offset=".2" stop-color="#f9d30e"/><stop offset=".2" stop-color="#f9d20e"/><stop offset=".2" stop-color="#f8d10e"/><stop offset=".2" stop-color="#f8d00e"/><stop offset=".2" stop-color="#f8d00e"/><stop offset=".3" stop-color="#f9d00e"/><stop offset=".3" stop-color="#f9ce0d"/><stop offset=".3" stop-color="#f9ce0d"/><stop offset=".3" stop-color="#f9cd0d"/><stop offset=".3" stop-color="#f9cd0d"/><stop offset=".3" stop-color="#f9cc0d"/><stop offset=".3" stop-color="#f9cb0d"/><stop offset=".3" stop-color="#f9ca0c"/><stop offset=".3" stop-color="#f9c90c"/><stop offset=".3" stop-color="#f9c90c"/><stop offset=".3" stop-color="#f9c90c"/><stop offset=".3" stop-color="#fac80b"/><stop offset=".3" stop-color="#fac80b"/><stop offset=".3" stop-color="#fac70b"/><stop offset=".4" stop-color="#f9c60b"/><stop offset=".4" stop-color="#f9c60b"/><stop offset=".4" stop-color="#f9c60b"/><stop offset=".4" stop-color="#f9c50b"/><stop offset=".4" stop-color="#f9c50b"/><stop offset=".4" stop-color="#f9c40a"/><stop offset=".5" stop-color="#f9c30a"/><stop offset=".5" stop-color="#f9c30a"/><stop offset=".5" stop-color="#f9c30a"/><stop offset=".5" stop-color="#f9c20a"/><stop offset=".5" stop-color="#f8c10b"/><stop offset=".5" stop-color="#f8c00b"/><stop offset=".5" stop-color="#f8c00b"/><stop offset=".5" stop-color="#f8c00b"/><stop offset=".5" stop-color="#f8bf0b"/><stop offset=".5" stop-color="#f8be0b"/><stop offset=".5" stop-color="#f8bd0b"/><stop offset=".5" stop-color="#f8bc0b"/><stop offset=".5" stop-color="#f8bc0b"/><stop offset=".6" stop-color="#f8bc0b"/><stop offset=".6" stop-color="#f7bb0c"/><stop offset=".6" stop-color="#f7ba0c"/><stop offset=".6" stop-color="#f7b90c"/><stop offset=".6" stop-color="#f7b90c"/><stop offset=".6" stop-color="#f7b90c"/><stop offset=".6" stop-color="#f6b80c"/><stop offset=".6" stop-color="#f6b70c"/><stop offset=".6" stop-color="#f6b70c"/><stop offset=".6" stop-color="#f6b50c"/><stop offset=".6" stop-color="#f6b50c"/><stop offset=".6" stop-color="#f6b40c"/><stop offset=".6" stop-color="#f6b40c"/><stop offset=".6" stop-color="#f6b30c"/><stop offset=".7" stop-color="#f6b20c"/><stop offset=".7" stop-color="#f7b10c"/><stop offset=".7" stop-color="#f7b00d"/><stop offset=".7" stop-color="#f7b00d"/><stop offset=".7" stop-color="#f7af0d"/><stop offset=".7" stop-color="#f7ae0d"/><stop offset=".7" stop-color="#f7ae0d"/><stop offset=".7" stop-color="#f6ad0d"/><stop offset=".7" stop-color="#f6ac0d"/><stop offset=".7" stop-color="#f6ac0e"/><stop offset=".7" stop-color="#f5ab0e"/><stop offset=".7" stop-color="#f5aa0f"/><stop offset=".7" stop-color="#f5aa0f"/><stop offset=".7" stop-color="#f5a910"/><stop offset=".8" stop-color="#f5a910"/><stop offset=".8" stop-color="#f5a811"/><stop offset=".8" stop-color="#f5a711"/><stop offset=".8" stop-color="#f5a712"/><stop offset=".8" stop-color="#f5a612"/><stop offset=".8" stop-color="#f5a513"/><stop offset=".8" stop-color="#f5a513"/><stop offset=".8" stop-color="#f5a414"/><stop offset=".8" stop-color="#f5a314"/><stop offset=".8" stop-color="#f5a314"/><stop offset=".8" stop-color="#f5a215"/><stop offset=".8" stop-color="#f5a215"/><stop offset=".8" stop-color="#f6a115"/><stop offset=".8" stop-color="#f5a016"/><stop offset=".9" stop-color="#f5a016"/><stop offset=".9" stop-color="#f59f17"/><stop offset=".9" stop-color="#f59e17"/><stop offset=".9" stop-color="#f59d17"/><stop offset=".9" stop-color="#f59d18"/><stop offset=".9" stop-color="#f59c19"/><stop offset=".9" stop-color="#f59c19"/><stop offset=".9" stop-color="#f59b1a"/><stop offset=".9" stop-color="#f59b1b"/><stop offset=".9" stop-color="#f59a1b"/><stop offset=".9" stop-color="#f5991c"/><stop offset=".9" stop-color="#f5981c"/><stop offset=".9" stop-color="#f5981d"/><stop offset=".9" stop-color="#f5971e"/><stop offset=".9" stop-color="#f5961f"/><stop offset=".9" stop-color="#f5961f"/><stop offset=".9" stop-color="#f59520"/><stop offset=".9" stop-color="#f59520"/><stop offset="1" stop-color="#f49421"/><stop offset="1" stop-color="#f49421"/><stop offset="1" stop-color="#f49321"/><stop offset="1" stop-color="#f49321"/><stop offset="1" stop-color="#f49222"/><stop offset="1" stop-color="#f49122"/><stop offset="1" stop-color="#f49022"/><stop offset="1" stop-color="#f49023"/></linearGradient><linearGradient id="l" x1="0" x2=".7" y1="0" y2="0" gradientTransform="matrix(-368.32 0 0 -367.01 256 140)" gradientUnits="userSpaceOnUse"><stop offset="0" stop-color="#f6f127"/><stop offset="0" stop-color="#f6f127"/><stop offset="0" stop-color="#f6f126"/><stop offset="0" stop-color="#f7f124"/><stop offset="0" stop-color="#f7f123"/><stop offset="0" stop-color="#f7f121"/><stop offset=".1" stop-color="#f7f01f"/><stop offset=".1" stop-color="#f8ef1d"/><stop offset=".1" stop-color="#f8ee1c"/><stop offset=".1" stop-color="#f8ed1b"/><stop offset=".1" stop-color="#f8ed1b"/><stop offset=".1" stop-color="#f8ec1a"/><stop offset=".1" stop-color="#f8eb1a"/><stop offset=".1" stop-color="#f8ea19"/><stop offset=".1" stop-color="#f8ea18"/><stop offset=".1" stop-color="#f8e917"/><stop offset=".1" stop-color="#f8e817"/><stop offset=".1" stop-color="#f8e716"/><stop offset=".1" stop-color="#f8e616"/><stop offset=".1" stop-color="#f9e515"/><stop offset=".1" stop-color="#f9e415"/><stop offset=".1" stop-color="#f9e315"/><stop offset=".1" stop-color="#f9e315"/><stop offset=".1" stop-color="#f9e214"/><stop offset=".1" stop-color="#f9e114"/><stop offset=".1" stop-color="#f9e014"/><stop offset=".1" stop-color="#f9e013"/><stop offset=".1" stop-color="#f9df13"/><stop offset=".1" stop-color="#f8de12"/><stop offset=".1" stop-color="#f8dc12"/><stop offset=".1" stop-color="#f8dc12"/><stop offset=".1" stop-color="#f8db12"/><stop offset=".2" stop-color="#f8db12"/><stop offset=".2" stop-color="#f8da11"/><stop offset=".2" stop-color="#f8d910"/><stop offset=".2" stop-color="#f8d810"/><stop offset=".2" stop-color="#f8d80f"/><stop offset=".2" stop-color="#f9d70f"/><stop offset=".2" stop-color="#f9d60f"/><stop offset=".2" stop-color="#f9d50e"/><stop offset=".2" stop-color="#f9d40e"/><stop offset=".2" stop-color="#f9d40e"/><stop offset=".2" stop-color="#f9d30e"/><stop offset=".2" stop-color="#f9d20e"/><stop offset=".2" stop-color="#f9d20e"/><stop offset=".2" stop-color="#f8d10e"/><stop offset=".2" stop-color="#f8d10e"/><stop offset=".2" stop-color="#f8d00e"/><stop offset=".2" stop-color="#f8d00e"/><stop offset=".2" stop-color="#f9cf0e"/><stop offset=".2" stop-color="#f9ce0d"/><stop offset=".2" stop-color="#f9ce0d"/><stop offset=".2" stop-color="#f9cd0d"/><stop offset=".3" stop-color="#f9cc0d"/><stop offset=".3" stop-color="#f9cb0d"/><stop offset=".3" stop-color="#f9ca0c"/><stop offset=".3" stop-color="#f9c90c"/><stop offset=".3" stop-color="#f9c90c"/><stop offset=".3" stop-color="#fac90b"/><stop offset=".3" stop-color="#fac80b"/><stop offset=".3" stop-color="#fac80b"/><stop offset=".3" stop-color="#fac80b"/><stop offset=".3" stop-color="#fac70b"/><stop offset=".3" stop-color="#f9c60b"/><stop offset=".3" stop-color="#f9c60b"/><stop offset=".3" stop-color="#f9c50b"/><stop offset=".4" stop-color="#f9c40b"/><stop offset=".4" stop-color="#f9c30a"/><stop offset=".4" stop-color="#f9c30a"/><stop offset=".4" stop-color="#f9c30a"/><stop offset=".4" stop-color="#f9c20b"/><stop offset=".4" stop-color="#f8c10b"/><stop offset=".4" stop-color="#f8c00b"/><stop offset=".4" stop-color="#f8bf0b"/><stop offset=".5" stop-color="#f8bf0b"/><stop offset=".5" stop-color="#f8be0b"/><stop offset=".5" stop-color="#f8bd0b"/><stop offset=".5" stop-color="#f8bc0b"/><stop offset=".5" stop-color="#f8bc0b"/><stop offset=".5" stop-color="#f8bc0b"/><stop offset=".5" stop-color="#f7ba0c"/><stop offset=".5" stop-color="#f7b90c"/><stop offset=".5" stop-color="#f7b90c"/><stop offset=".5" stop-color="#f7b90c"/><stop offset=".5" stop-color="#f6b80c"/><stop offset=".5" stop-color="#f6b70c"/><stop offset=".5" stop-color="#f6b60c"/><stop offset=".5" stop-color="#f6b60c"/><stop offset=".5" stop-color="#f6b50c"/><stop offset=".5" stop-color="#f6b40c"/><stop offset=".5" stop-color="#f6b40c"/><stop offset=".6" stop-color="#f6b30c"/><stop offset=".6" stop-color="#f6b20c"/><stop offset=".6" stop-color="#f7b10c"/><stop offset=".6" stop-color="#f7b10c"/><stop offset=".6" stop-color="#f7b00d"/><stop offset=".6" stop-color="#f7b00d"/><stop offset=".6" stop-color="#f7b00d"/><stop offset=".6" stop-color="#f7af0d"/><stop offset=".6" stop-color="#f7ae0d"/><stop offset=".6" stop-color="#f7ad0d"/><stop offset=".6" stop-color="#f6ac0d"/><stop offset=".6" stop-color="#f6ac0d"/><stop offset=".6" stop-color="#f5aa0f"/><stop offset=".6" stop-color="#f5a910"/><stop offset=".6" stop-color="#f5a910"/><stop offset=".6" stop-color="#f5a811"/><stop offset=".7" stop-color="#f5a811"/><stop offset=".7" stop-color="#f5a712"/><stop offset=".7" stop-color="#f5a612"/><stop offset=".7" stop-color="#f5a513"/><stop offset=".7" stop-color="#f5a414"/><stop offset=".7" stop-color="#f5a314"/><stop offset=".7" stop-color="#f5a314"/><stop offset=".7" stop-color="#f5a215"/><stop offset=".7" stop-color="#f5a215"/><stop offset=".7" stop-color="#f6a115"/><stop offset=".7" stop-color="#f5a016"/><stop offset=".7" stop-color="#f59f17"/><stop offset=".7" stop-color="#f59e17"/><stop offset=".7" stop-color="#f59d17"/><stop offset=".8" stop-color="#f59d18"/><stop offset=".8" stop-color="#f59c1a"/><stop offset=".8" stop-color="#f59b1b"/><stop offset=".8" stop-color="#f59b1b"/><stop offset=".8" stop-color="#f59a1b"/><stop offset=".8" stop-color="#f5991c"/><stop offset=".8" stop-color="#f5981c"/><stop offset=".8" stop-color="#f5981d"/><stop offset=".8" stop-color="#f5971e"/><stop offset=".8" stop-color="#f5961f"/><stop offset=".8" stop-color="#f5951f"/><stop offset=".8" stop-color="#f59520"/><stop offset=".8" stop-color="#f59520"/><stop offset=".8" stop-color="#f49420"/><stop offset=".8" stop-color="#f49321"/><stop offset=".8" stop-color="#f49321"/><stop offset=".8" stop-color="#f49222"/><stop offset=".8" stop-color="#f49122"/><stop offset=".8" stop-color="#f49122"/><stop offset=".8" stop-color="#f49022"/><stop offset=".9" stop-color="#f48f23"/><stop offset=".9" stop-color="#f48f23"/><stop offset=".9" stop-color="#f48f24"/><stop offset=".9" stop-color="#f38e24"/><stop offset=".9" stop-color="#f38d25"/><stop offset=".9" stop-color="#f38c25"/><stop offset=".9" stop-color="#f38c26"/><stop offset=".9" stop-color="#f38b26"/><stop offset=".9" stop-color="#f38a27"/><stop offset=".9" stop-color="#f38a28"/><stop offset=".9" stop-color="#f38929"/><stop offset=".9" stop-color="#f38829"/><stop offset=".9" stop-color="#f38829"/><stop offset=".9" stop-color="#f38829"/><stop offset=".9" stop-color="#f3872a"/><stop offset=".9" stop-color="#f3862a"/><stop offset=".9" stop-color="#f2852a"/><stop offset=".9" stop-color="#f2842b"/><stop offset=".9" stop-color="#f2842b"/><stop offset=".9" stop-color="#f2832c"/><stop offset=".9" stop-color="#f2832d"/><stop offset="1" stop-color="#f2822d"/><stop offset="1" stop-color="#f2812e"/><stop offset="1" stop-color="#f2812f"/><stop offset="1" stop-color="#f2812f"/><stop offset="1" stop-color="#f27f2f"/><stop offset="1" stop-color="#f27e2f"/><stop offset="1" stop-color="#f27e2f"/><stop offset="1" stop-color="#f27d2f"/><stop offset="1" stop-color="#f27c2f"/><stop offset="1" stop-color="#f27b2f"/><stop offset="1" stop-color="#f27a2f"/><stop offset="1" stop-color="#f2792f"/></linearGradient></defs><g clip-path="url(#a)" transform="translate(8 35)"><g clip-path="url(#b)"><path fill="#004aad" d="m292 172-10 32H144l-10 33-22 66H78l21-66 11-33 10-32z"/></g><g clip-path="url(#c)"><path fill="#004aad" d="m348 106-11 33H165l11-33z"/></g><g clip-path="url(#d)"><g clip-path="url(#e)"><g clip-path="url(#f)"><g clip-path="url(#g)"><path fill="url(#h)" d="M359 2 84 1l-1 142 275 1Zm0 0"/></g></g></g></g><g clip-path="url(#i)"><g clip-path="url(#j)"><g clip-path="url(#k)"><path fill="url(#l)" d="M265 183V96H1v87Zm0 0"/></g></g></g></g></svg>