<svg xmlns="http://www.w3.org/2000/svg" width="3780" height="1890" viewBox="0 0 2835 1417.5"><defs><clipPath id="c"><path d="M1 0h2834v1417H1Zm0 0"/></clipPath><clipPath id="e"><path d="M1 0h2834v1417H1Zm0 0"/></clipPath><clipPath id="f"><path d="M1 916h1642v212H1Zm0 0"/></clipPath><clipPath id="h"><path d="M1 2h1640v203H1Zm0 0"/></clipPath><clipPath id="g"><path d="M0 0h1643v212H0z"/></clipPath><clipPath id="j"><path d="M1 366h2830v639H1Zm0 0"/></clipPath><clipPath id="k"><path d="M0 0h2831v639H0z"/></clipPath><clipPath id="l"><path d="M1714 418h1075v618H1714Zm0 0"/></clipPath><clipPath id="d"><path d="M0 0h2835v1417H0z"/></clipPath><filter id="a" width="100%" height="100%" x="0%" y="0%"><feColorMatrix color-interpolation-filters="sRGB" values="0 0 0 0 1 0 0 0 0 1 0 0 0 0 1 0 0 0 1 0"/></filter><filter id="b" width="100%" height="100%" x="0%" y="0%"><feColorMatrix color-interpolation-filters="sRGB" values="0 0 0 0 1 0 0 0 0 1 0 0 0 0 1 0.2126 0.7152 0.0722 0 0"/></filter><mask id="i"><g filter="url(#a)"><g filter="url(#b)" transform="matrix(.24 0 0 .24 0 2)"/></g></mask></defs><g clip-path="url(#c)"><g clip-path="url(#d)"><g clip-path="url(#e)"></g><g clip-path="url(#f)"><g clip-path="url(#g)" transform="translate(0 916)"><path fill="#ffb800" d="m36 154-6-5-2-5q0-3 3-5l2-1 3 1 3 1q4 4 10 4l7-1q6-2 9-5 4-2 9-8l4-8 1-7-1-6-7-6-9-2-9 1-9 2h-1l-3 5-12 30-4 4-4-4-2-3-1-4v-3l3-7 27-66 2-9v-1l-1-2 6-2q5-2 7-2h1l2-1h8q12 2 18 6 6 6 6 16 0 4-5 11a50 50 0 0 1-14 16l-4 3 3 1q8 3 12 7a23 23 0 0 1 6 14l-1 7-3 8-1 2-1 1-3 5-5 7-16 11q-7 3-16 3-7 0-12-3m11-64 13-3 2-1 3-2q10-9 14-17 4-6 4-9l-2-3q-3-4-10-4l-5 1-3 1-1 3-1 3-1 2-1 2-1 1-2 4-4 9zM133 79l-3-3-1-3v-2l2-3 2-3 2-4 2-2 2-1 4 2 4 3 1 4q0 4-4 8a11 11 0 0 1-8 5zm-17 62-2-8 1-5v-3l1-5 9-25 1-1 2-1q1-1 4 1l4 5 1 2-2 7-1 4-2 5-3 11-2 7-3 6-4 2zM178 70l-2-5 1-5 3-5 6-2 5 1 2 7-1 4-6 4-5 2zm-23 105q-3 4-8 4-6 0-10-4l-4-8-2-7 1-4 3-1 4 1 2 3 1 5 2 1h1q3 0 6-4l6-12 8-27 2-11 2-11 1-6 1-5v-4l4 1 4 2 2 4 1 6-2 16-13 45-5 9zM214 145h-1q-3 0-6-4l-2-9 1-6 2-7 3-10 3-9 1-1 1-3 2-5v-3l1-1v-1a249 249 0 0 0 16-43l2-1 2-1h2l3 3 3 2v3l-1 6-10 24-1 3-11 28-1 4zM267 79l-3-3-1-3 1-2 1-3 2-3 2-4 2-2 2-1 4 2 4 3 1 4q0 4-4 8a11 11 0 0 1-8 5zm-17 62-2-8 1-5v-3l2-5 8-25 1-1 2-1q1-1 4 1l4 5 1 2q1 3-2 7l-1 4-1 5-4 11-2 7q-1 5-3 6l-3 2zM362 154q-4-2-6-5-2-2-2-5t3-5l2-1 3 1 3 1q4 4 9 4l7-1 10-5 8-8 5-8 1-7-2-6q-3-4-7-6l-8-2-9 1-9 2h-2l-3 5-11 30-4 4q-2 0-4-4l-2-3-2-4 1-3 3-7 26-66q5-8 3-9l-1-1v-2l5-2 8-2h1l2-1h8q11 2 17 6 7 6 7 16l-5 11a50 50 0 0 1-15 16l-4 3 4 1q8 3 11 7a23 23 0 0 1 6 14l-1 7-2 8-2 2-1 1-2 5-5 7q-10 8-17 11-6 3-15 3t-12-3m11-64 13-3 2-1 3-2 14-17 3-9-1-3q-3-4-10-4l-5 1-3 1-1 3-1 3-2 2v2l-1 1-2 4-4 9q-5 11-5 13M447 137q-3 0-5-3t-2-6l4-19 4-10 1-3 7-23 2-4 6-18 3-6 1-3 3-1q3 0 5 3l3 7-1 4-14 36-3 9-2 4-2 8v1l2-2 16-13 2-2 1-1q5-3 11-4l4 2 4 5 1 6v3l-1 10-2 7h6l2 1 1 1v1q0 4-4 6-3 3-7 3t-7-3-3-8l1-7v-7l-1-1-11 5-16 15q-4 7-9 7M546 79l-3-3-1-3 1-2 1-3 2-3 2-4 2-2 2-1 4 2 4 3 1 4q0 4-4 8a11 11 0 0 1-8 5zm-17 62-2-8 1-5v-3l2-5 8-25 1-1 2-1q1-1 4 1l4 5 1 2q1 3-2 7l-1 4-1 5-4 11-2 7q-1 5-3 6l-3 2zM566 156q-3 1-4-2v-2l2-2q4-3 8-12l4-13 4-2q3 0 5 8v3l-3 10-4 6-4 4-2 1-1 1h-5M686 154q-4-2-6-5l-2-5q0-3 3-5l2-1 3 1 3 1q5 4 9 4l8-1q6-2 9-5l8-8 5-8 1-7q1-4-2-6l-6-6-9-2-9 1-9 2h-2l-3 5-11 30-4 4q-2 0-4-4l-2-3-2-4 1-3 3-7 26-66q5-8 3-9l-1-1v-2l5-2 8-2h1l2-1h8q12 2 17 6 7 6 7 16l-5 11a50 50 0 0 1-15 16l-4 3 4 1q8 3 11 7a23 23 0 0 1 7 14l-2 7-2 8-2 2-1 1-2 5-5 7q-10 8-17 11-6 3-15 3-8 0-12-3m11-64 13-3 2-1 3-2q10-9 14-17l4-9-2-3q-3-4-10-4l-5 1-3 1-1 3-1 3-1 2-1 2-1 1-2 4-4 9zM771 137q-3 0-5-3-3-3-2-6l4-19 4-10 1-3 7-23 2-4 6-18 3-6 1-3 3-1q3 0 5 3l3 7-1 4-13 36-4 9-2 4-2 8v1l2-2 16-13 2-2 1-1q5-3 11-4l4 2 4 5 1 6v3l-1 10-2 7h6l2 1 1 1v1q0 4-3 6l-8 3q-4 0-7-3t-2-8v-14l-1-1-11 5-15 15q-6 7-10 7M856 140l-2-3-2-1-1-2-1-2q-2-2 1-8l13-23 1-1 1-2 6-7 9-7 6-2 7 2 4 4 5 4 6 5-3 8-1 8q0 6 3 11l2 2 3 2q4 0 4 3l-1 5-3 2-4 1q-4 0-8-3-4-2-6-8l-2-3-1-3-4 4q-15 16-26 16zm9-13 10-5 3-4 12-11 3-6-3-5-2-1q-3 0-8 6l-14 22zM948 135l-4-10-5-18-2-9v-2l1-4 3-4h5q4 1 6 18l3 14h1l5-6 5-7 5-6 5-6q2-3 5-3l3 1 1 3q0 3-2 6l-2 3-1 3-7 9-8 10-4 5q-6 4-9 4zM1019 79l-3-3-1-3 1-2 1-3 2-3 2-4 2-2 2-1 4 2 4 3 1 4q0 4-4 8a11 11 0 0 1-8 5zm-17 62-2-8 1-5v-3l2-5 8-25 1-1 2-1q1-1 4 1l4 5 1 2q1 3-2 7l-1 4-1 5-4 11-2 7q-1 5-3 6l-3 2zM1062 145l-8-1q-4-1-6-4l-3-4q-1-2 2-2v-1h5l3 1h10l2-2-1-1-2-1-5-4-8-7 1-1q-2 0-2-3l-1-6q0-5 4-12a54 54 0 0 1 25-18l7-1h5l5 3 3 5v8q0 3-2 3v1q-1 3-4 5l-7 3h-1l-2-2-2-4 2-2 3-4 1-4v-1h-2q-9 4-13 7v1l-1 1h-1l-2 1-3 5-1 4h-1v2l1 3 5 4 10 8 3 5 1 5q0 5-5 8-6 3-15 2M1121 137q-3 0-5-3l-3-6 5-19 3-10 2-3 7-23 1-4 7-18 2-6 2-3 3-1q2 0 5 3 2 4 2 7v4l-14 36-3 9-2 4-2 8-1 1h1l2-2 16-13 1-2 2-1q5-3 11-4l4 2 3 5q2 3 2 6v3l-1 10-2 7h6l1 1 2 1v1q0 4-4 6-4 3-7 3-4 0-7-3t-3-8l1-7v-7l-2-1-10 5-16 15q-5 7-9 7M1248 86l3 4 1 3-2 8-5 11-4 8-11 25-2 3-12 17-8 7-8 3a31 31 0 0 1-17-1q-6-2-6-6v-1q0-3 2-4l4-2 2 1 3 2 6 1q7 0 13-9l10-17-6-6q-3-4-2-6v-2q-2 0-2-4V93l1-9 2-2 3-1q8 0 8 16l-1 4v11q0 11 3 15l3-5 2-5 2-4 2-4 2-6 5-12 2-3 2-2 2-1zM1273 140l-2-3-2-1-1-2-1-2q-2-2 1-8l13-23 1-1 1-2 6-7 9-7 6-2 6 2 5 4 5 4 5 5-2 8-2 8q1 6 4 11l2 2 3 2q4 0 4 3l-2 5q0 2-3 2l-3 1q-5 0-8-3-4-2-7-8l-1-3-1-3-4 4q-15 16-26 16zm9-13 9-5 4-4 12-11 3-6-3-5-2-1q-3 0-8 6l-14 22zM1420 154l-6-5-2-5q0-3 4-5l1-1 4 1 2 1q4 4 10 4l7-1q6-2 9-5 4-2 9-8l4-8 2-7-2-6q-3-4-7-6l-9-2-9 1-9 2h-1l-3 5-12 30-4 4-4-4-2-3-1-4 1-3 2-7 27-66 2-9v-1l-1-2 6-2 7-2h1l2-1h9q11 2 17 6 6 6 6 16-1 4-4 11a50 50 0 0 1-15 16l-4 3 4 1 11 7a23 23 0 0 1 6 14l-1 7-3 8-1 2-1 1-3 5-4 7-17 11q-7 3-16 3-8 0-12-3m11-64 13-3 2-1 4-2q9-9 13-17 4-6 4-9l-2-3q-3-4-9-4l-5 1-4 1-1 3v3l-2 2-1 2-1 1-2 4-4 9zM1506 137l-6-3-2-6 5-19 3-10 1-3 8-23 1-4 7-18 2-6 2-3 3-1q2 0 5 3l2 7-1 4-13 36-4 9-1 4-3 8v1l3-2 16-13 1-2 2-1q4-3 10-4l4 2 4 5 2 6v3l-2 10-1 7h5l2 1 2 1v1q0 4-4 6l-7 3q-5 0-7-3-3-3-3-8v-7l1-5v-2l-2-1-10 5q-9 6-16 15-5 7-9 7M1604 79l-2-3-1-3v-2l2-3 1-3 2-4 2-2 2-1 5 2 3 3 1 4q0 4-3 8a11 11 0 0 1-8 5zm-16 62q-3-2-2-8v-5l1-1v-2l1-5 9-25v-1l2-1q2-1 5 1l4 5 1 2-2 7-2 4-1 5-3 11-2 7-3 6-4 2zm0 0"/></g></g><g clip-path="url(#j)"><g clip-path="url(#k)" transform="translate(0 366)"><path fill="#81a969" fill-opacity=".4" d="M261 40v84H114v83h135v84H114v168H18V40Zm0 0"/><path fill="#81a969" fill-opacity=".4" d="M343 199v124q0 38 12 54 12 17 40 17 27 0 39-17 12-16 12-54V199h90v145q0 66-34 94-33 29-107 29t-108-29-34-94V199Zm0 0"/><path fill="#81a969" fill-opacity=".4" d="M553 53q15-15 37-15t38 15 16 38q-1 22-16 37a51 51 0 0 1-38 16q-22 0-37-16a51 51 0 0 1-16-37q0-22 16-38m-9 146v283q0 36-25 36l-11-2-9-4-3-2-28 73 7 3 8 4 22 6 35 3q25 0 45-9 18-9 29-24a112 112 0 0 0 20-67V199Zm0 0"/><path fill="#81a969" fill-opacity=".4" d="M656 53q15-15 37-15t38 15 16 38q-1 22-16 37a51 51 0 0 1-38 16q-22 0-37-16a51 51 0 0 1-16-37q0-22 16-38m-9 146v260h90V199Zm0 0"/><path fill="#81a969" fill-opacity=".4" d="M768 199v-97h90v97h55v68h-55v83q0 36 20 36l11-2 9-4 3-2 22 73a133 133 0 0 1-110 7q-18-9-27-24-10-15-14-31-4-17-4-36V267h-38v-68Zm0 0"/><path fill="#81a969" fill-opacity=".4" d="M1169 341H980q0 28 18 41t39 13q22 0 34-6 13-6 29-23l65 33q-40 68-135 68-59 0-101-41-42-40-42-97t42-97 101-41q62 0 101 36t39 102zm-186-49h99q-3-21-16-32t-33-11q-22 0-36 12-13 12-14 31m0 0"/><path fill="#81a969" fill-opacity=".4" d="m1462 199-124 124 136 136h-116l-104-104v104h-90V22h90v268l91-91ZM1690 32q34 1 67 10 31 10 48 20l15 10-38 76-13-8-31-13q-22-8-41-8-24 0-37 11-13 9-13 27 0 9 6 16t21 16a332 332 0 0 0 60 28q41 18 70 47 28 30 28 68 0 36-13 63-12 27-35 42t-50 22-60 8a259 259 0 0 1-130-36l-21-14-6-6 48-80 16 13 38 21q27 13 48 13 61 0 61-41 0-8-5-16-4-8-15-14l-19-12-56-27q-38-18-59-47-21-28-21-61 0-56 42-92t95-36M2193 459V22h90v437Zm0 0"/><path fill="#81a969" fill-opacity=".4" d="M2314 427q-36-40-37-98 1-57 37-98 36-40 93-40 52 0 85 32v-24h90v260h-89v-29h-1q-33 37-85 37-57 0-93-40m76-142a59 59 0 0 0-17 44q0 27 17 44t44 17a58 58 0 0 0 60-61 59 59 0 0 0-60-61q-26-1-44 17M2595 459V199h90v37h1l4-5a124 124 0 0 1 48-35q14-5 28-5a105 105 0 0 1 50 12l7 4-38 76q-16-14-46-14-16 0-28 7t-17 18l-7 17-2 11v137Zm0 0"/><path fill="#1d5c9c" d="M261 40v84H114v83h135v84H114v168H18V40Zm0 0"/><path fill="#1d5c9c" d="M343 199v124q0 38 12 54 12 17 40 17 27 0 39-17 12-16 12-54V199h90v145q0 66-34 94-33 29-107 29t-108-29-34-94V199Zm0 0"/><path fill="#1d5c9c" d="M553 53q15-15 37-15t38 15 16 38q-1 22-16 37a51 51 0 0 1-38 16q-22 0-37-16a51 51 0 0 1-16-37q0-22 16-38m-9 146v283q0 36-25 36l-11-2-9-4-3-2-28 73 7 3 8 4 22 6 35 3q25 0 45-9 18-9 29-24a112 112 0 0 0 20-67V199Zm0 0"/><path fill="#1d5c9c" d="M656 53q15-15 37-15t38 15 16 38q-1 22-16 37a51 51 0 0 1-38 16q-22 0-37-16a51 51 0 0 1-16-37q0-22 16-38m-9 146v260h90V199Zm0 0"/><path fill="#1d5c9c" d="M768 199v-97h90v97h55v68h-55v83q0 36 20 36l11-2 9-4 3-2 22 73a133 133 0 0 1-110 7q-18-9-27-24-10-15-14-31-4-17-4-36V267h-38v-68Zm0 0"/><path fill="#1d5c9c" d="M1169 341H980q0 28 18 41t39 13q22 0 34-6 13-6 29-23l65 33q-40 68-135 68-59 0-101-41-42-40-42-97t42-97 101-41q62 0 101 36t39 102zm-186-49h99q-3-21-16-32t-33-11q-22 0-36 12-13 12-14 31m0 0"/><path fill="#1d5c9c" d="m1462 199-124 124 136 136h-116l-104-104v104h-90V22h90v268l91-91ZM1690 32q34 1 67 10 31 10 48 20l15 10-38 76-13-8-31-13q-22-8-41-8-24 0-37 11-13 9-13 27 0 9 6 16t21 16a332 332 0 0 0 60 28q41 18 70 47 28 30 28 68 0 36-13 63-12 27-35 42t-50 22-60 8a259 259 0 0 1-130-36l-21-14-6-6 48-80 16 13 38 21q27 13 48 13 61 0 61-41 0-8-5-16-4-8-15-14l-19-12-56-27q-38-18-59-47-21-28-21-61 0-56 42-92t95-36M2193 459V22h90v437Zm0 0"/><path fill="#1d5c9c" d="M2314 427q-36-40-37-98 1-57 37-98 36-40 93-40 52 0 85 32v-24h90v260h-89v-29h-1q-33 37-85 37-57 0-93-40m76-142a59 59 0 0 0-17 44q0 27 17 44t44 17a58 58 0 0 0 60-61 59 59 0 0 0-60-61q-26-1-44 17M2595 459V199h90v37h1l4-5a124 124 0 0 1 48-35q14-5 28-5a105 105 0 0 1 50 12l7 4-38 76q-16-14-46-14-16 0-28 7t-17 18l-7 17-2 11v137Zm0 0"/></g></g><g clip-path="url(#l)"><path fill="#ffb800" d="M2200 844h588l-649-58a128 128 0 1 1-9-133l93-75-68 38 80-117-112 94 32-76-50 62 33-140-71 127 3-81-25 77-20-144-20 142-25-74 4 81-72-128 33 140-50-60 34 75-114-95 81 119-67-37 57 57-140-47 120 82-77-11 73 32-147 7 142 33-76 19 78 3-134 59 147-21-65 46 72-25-103 103 131-73-45 67 57-48-58 131 97-117-19 81 35-64-6 141 48-145 13 84 9-71 44 132-7-153 43 75-17-70 88 107-62-140 67 54-41-59 121 68z"/></g></g></g></svg>
