<svg xmlns="http://www.w3.org/2000/svg" viewBox="0 0 64 64" id="IndianBusinessman">
  <g fill="#fbbc05" class="color000000 svgShape">
    <path fill="#34a853" d="M43.753 8.393C40.937 5.259 38.296 4 32.189 4S24.1 6.786 24.1 6.786a4.598 4.598 0 0 0-3.476 1.607c-1.014 1.074-1.223 9.17.223 14.107s2.41 7.509 4.179 8.071c1.463.466 5.274-2.037 6.546-2.914 1.743.957 6.354 3.367 7.778 2.914 1.768-.562 2.732-3.134 4.179-8.071s1.21-13.008.223-14.107Z" class="color212121 svgShape"></path>
    <path fill="#ff9a91" d="M36 35.243v3.078l11.623 2.673a8 8 0 0 1 5.797 5.266l3.702 11.107A2 2 0 0 1 55.225 60H8.775a2 2 0 0 1-1.897-2.632L10.58 46.26a8 8 0 0 1 5.797-5.266L28 38.32v-3.078Z" class="colorffab91 svgShape"></path>
    <path fill="#ea4335" d="M45.94 24A4.001 4.001 0 0 0 42 20.006V20h-2v8h2v-.006A4.001 4.001 0 0 0 45.94 24zM22 20a4 4 0 0 0 0 8h2v-8zm14 17.187v-4.944h-8v4.944a10.248 10.248 0 0 0 8 0z" class="colorea7760 svgShape"></path>
    <path fill="#ff9a91" d="M21 20c0-6.075 1-11 11-11s11 4.925 11 11l-3.21 10.273A8.161 8.161 0 0 1 32 36a8.161 8.161 0 0 1-7.79-5.727Z" class="colorffab91 svgShape"></path>
    <path fill="#34a853" d="M34.598 28.821a7.521 7.521 0 0 0-2.598.143 7.521 7.521 0 0 0-2.598-.143 5.818 5.818 0 0 0-2.813 1.83 5.853 5.853 0 0 1 2.599.161A4.053 4.053 0 0 0 32 30.491a4.053 4.053 0 0 0 2.813.322 5.853 5.853 0 0 1 2.598-.161 5.818 5.818 0 0 0-2.813-1.83zM39.741 10l-.072.065A7.392 7.392 0 0 0 38.286 9c-2.893-1.723-10.607-1-10.607-1A7.487 7.487 0 0 0 23.5 9.678c-1.607 1.527-3.214 7.634-2.813 10.045a34.97 34.97 0 0 0 2.237 6.433l-.469-7.719a6.145 6.145 0 0 0 3.356-2.49 143.522 143.522 0 0 1 2.082-2.652 15.936 15.936 0 0 0 8.705 3.937 4.548 4.548 0 0 0 2.516-.268 5.432 5.432 0 0 0 2.43 1.474l-.468 7.718s1.973-4.003 2.236-6.433c.68-6.268-1.964-8.196-3.571-9.723z" class="color212121 svgShape"></path>
    <path fill="#79abff" d="M57.123 57.368 53.42 46.26a8 8 0 0 0-5.797-5.266l-9.149-2.104-6.474 5-6.474-5-9.15 2.103a8 8 0 0 0-5.796 5.267L6.878 57.368A2 2 0 0 0 8.774 60h46.45a2 2 0 0 0 1.898-2.632Z" class="color79bbff svgShape"></path>
    <path fill="#bf1b0d" d="m33.75 41.808-1.75.978-1.75-.978-1.888 2.009 2.102 2.156h3.072l2.102-2.156-1.888-2.009z" class="colorbf0d27 svgShape"></path>
    <path fill="#e81200" d="M32 60h3.832l-2.35-14.027L32 45.946l-1.482.027L28.168 60H32z" class="colore8002d svgShape"></path>
    <path fill="#4285f4" d="M28.22 46.041 31 41.747l-3-3.426-3.353.771 3.573 6.949zM39.353 39.092 36 38.321l-3 3.426 2.78 4.294 3.573-6.949z" class="color5592c9 svgShape"></path>
  </g>
</svg>
