<svg xmlns="http://www.w3.org/2000/svg" id="car-battery" viewBox="0 0 64 64">
  <path d="m6,17h52c1.66,0,3,1.34,3,3v3H3v-3c0-1.66,1.34-3,3-3Z" style="fill:#8bc24a"></path>
  <rect width="58" height="28" x="3" y="23" style="fill:#c8e6ca"></rect>
  <path d="m3,51h58v3c0,1.66-1.34,3-3,3H6c-1.66,0-3-1.34-3-3v-3h0Z" style="fill:#8bc24a"></path>
  <path d="m10,13h43c1.66,0,3,1.34,3,3v1H7v-1c0-1.66,1.34-3,3-3Z" style="fill:#4cb050"></path>
  <path d="M13 7h2c1.1 0 2 .9 2 2v4h-6v-4c0-1.1.9-2 2-2ZM49 7h2c1.1 0 2 .9 2 2v4h-6v-4c0-1.1.9-2 2-2Z" style="fill:#398e3d"></path>
  <polygon points="38 35.36 32.86 35.36 33.71 28 26 38.64 31.14 38.64 30.29 46 38 35.36" style="fill:#8bc24a"></polygon>
  <path d="M54 31h-3v-3c0-.55-.45-1-1-1s-1 .45-1 1v3h-3c-.55 0-1 .45-1 1s.45 1 1 1h3v3c0 .55.45 1 1 1s1-.45 1-1v-3h3c.55 0 1-.45 1-1s-.45-1-1-1ZM18 31h-8c-.55 0-1 .45-1 1s.45 1 1 1h8c.55 0 1-.45 1-1s-.45-1-1-1Z" style="fill:#398e3d"></path>
</svg>
