<svg xmlns="http://www.w3.org/2000/svg" enable-background="new 0 0 512 512" viewBox="0 0 512 512" id="Co">
  <circle cx="44" cy="468" r="39" fill="#53d86a" class="colorc5c2a1 svgShape"></circle>
  <path fill="#fe9526" d="M480.5,164.5c16.4-16.9,26.5-40,26.5-65.5c0-51.9-42.1-94-94-94c-47.4,0-86.6,35.1-93.1,80.8
			c-54.8,5.1-102.1,36.1-129.6,80.6c-8.9-2.8-18.5-4.4-28.4-4.4c-51.9,0-94,42.1-94,94s42.1,94,94,94c9.9,0,19.4-1.5,28.4-4.4
			c11.9,19.3,27.5,36,45.8,49.2c-8.9,11.7-14.1,26.3-14.1,42.2c0,38.7,31.3,70,70,70s70-31.3,70-70c0-4-0.4-8-1-11.8
			c4.7-0.7,9.4-1.6,14-2.7c11.7,22.3,35.1,37.5,62,37.5c38.7,0,70-31.3,70-70c0-19.9-8.3-37.9-21.7-50.6
			c13.8-24.7,21.7-53.1,21.7-83.4C507,222.3,497.3,190.9,480.5,164.5z" class="colord8d6c0 svgShape"></path>
  <circle cx="103" cy="429" r="70" fill="#fe9526" class="colord8d6c0 svgShape"></circle>
  <circle cx="175" cy="117" r="70" fill="#167ffc" class="colorecebdf svgShape"></circle>
  <path fill="#435145" d="M311 304h-20c-13.8 0-25-11.2-25-25v-80c0-13.8 11.2-25 25-25h20c13.8 0 25 11.2 25 25h-10c0-8.3-6.7-15-15-15h-20c-8.3 0-15 6.7-15 15v80c0 8.3 6.7 15 15 15h20c8.3 0 15-6.7 15-15h10C336 292.8 324.8 304 311 304zM391 304h-20c-13.8 0-25-11.2-25-25v-80c0-13.8 11.2-25 25-25h20c13.8 0 25 11.2 25 25v80C416 292.8 404.8 304 391 304zM371 184c-8.3 0-15 6.7-15 15v80c0 8.3 6.7 15 15 15h20c8.3 0 15-6.7 15-15v-80c0-8.3-6.7-15-15-15H371zM455.9 325h-17.8c-6.1 0-11.1-5-11.1-11.1 0-3.7 1.8-7.1 4.8-9.2l24.7-17c.3-.2.5-.6.5-.9v-2.7c0-.6-.5-1.1-1.1-1.1h-17.8c-.6 0-1.1.5-1.1 1.1v6.9h-10v-6.9c0-6.1 5-11.1 11.1-11.1h17.8c6.1 0 11.1 5 11.1 11.1v2.7c0 3.7-1.8 7.1-4.8 9.2l-24.7 17c-.3.2-.5.6-.5.9 0 .6.5 1.1 1.1 1.1h17.8c.6 0 1.1-.5 1.1-1.1V306h10v7.9C467 320 462 325 455.9 325z" class="color514c43 svgShape"></path>
  <path fill="#53d86a" d="M476.2 167.1c-16.7-26.3-40.3-47.3-68.3-60.8l4.3-9c29.7 14.3 54.7 36.6 72.4 64.4L476.2 167.1zM456.3 384.5l-6.8-7.3c12.5-11.8 23.2-25.3 31.5-40.3l8.7 4.9C480.8 357.7 469.6 372 456.3 384.5z" class="colorc5c2a1 svgShape"></path>
  <g fill="#595bd4" class="color000000 svgShape">
    <path fill="#53d86a" d="M191.9,350.4l-3-9.5c22-7,40.3-22,51.4-42.4l8.8,4.8C236.7,325.9,216.4,342.7,191.9,350.4z
				" class="colorc5c2a1 svgShape"></path>
  </g>
  <g fill="#595bd4" class="color000000 svgShape">
    <path fill="#53d86a" d="M240.1,397.8l-8-6c14.3-18.9,36.1-29.8,59.9-29.8v10C271.4,372,252.5,381.4,240.1,397.8z" class="colorc5c2a1 svgShape"></path>
  </g>
</svg>
