<svg xmlns="http://www.w3.org/2000/svg" viewBox="0 0 64 64" id="EcologyBattery">
  <rect width="22" height="10" x="10.041" y="1" fill="#fe9526" rx="2" class="colorcdeeaa svgShape"></rect>
  <path fill="#595bd4" d="M35.0408,9H7.0413a4.0046,4.0046,0,0,0-4,4V59a4.0046,4.0046,0,0,0,4,4H35.0408a3.6459,3.6459,0,0,0,1.1661-.1807,1,1,0,0,0-.2637-1.9477,12.328,12.328,0,0,1-8.3648-3.5093,11.649,11.649,0,0,1-1.5376-1.9058,14.29,14.29,0,0,1-1.8857-9.3442,18.3332,18.3332,0,0,1,.4649-2.5342c1.7353-.4511,7.7216-1.6489,12.42,1.7979a1.0006,1.0006,0,0,0,1.4424-.28c.1181-.1919.2363-.3838.373-.5762a.9939.9939,0,0,0,.1855-.58V13A4.0042,4.0042,0,0,0,35.0408,9Z" class="color6d70c6 svgShape"></path>
  <rect width="26" height="12" x="8.041" y="15" fill="#167ffc" rx="2" class="color96dae4 svgShape"></rect>
  <rect width="26" height="12" x="8.041" y="30" fill="#167ffc" rx="2" class="color96dae4 svgShape"></rect>
  <path fill="#167ffc" d="M24.1551,46.1118A1,1,0,0,0,23.1615,45h-13.12a2.002,2.002,0,0,0-2,2v8a2.002,2.002,0,0,0,2,2h15.16a1,1,0,0,0,.8393-1.5435A14.29,14.29,0,0,1,24.1551,46.1118Z" class="color96dae4 svgShape"></path>
  <path fill="#53d86a" d="M59.93,37.6436a.997.997,0,0,0-.6318-.6324c-.4942-.165-12.1709-3.9336-20.1738,4.0718A16.43,16.43,0,0,0,37.2264,43.36c-.1621.2275-.3037.4555-.4453.6835a1.001,1.001,0,0,0,.2676,1.3389c.1279.0913.2461.1826.3779.2866a10.4615,10.4615,0,0,1,.9775.8677c4.8252,4.8257,3.4473,11.877,2.9571,13.7866a17.7084,17.7084,0,0,1-1.9151.3872,1,1,0,0,0,.02,1.9815,26.0253,26.0253,0,0,0,3.2724.2119,18.0231,18.0231,0,0,0,13.12-5.0874C63.8631,49.8125,60.0946,38.1367,59.93,37.6436Z" class="color95c45f svgShape"></path>
  <path fill="#fe9526" d="M40.0614,57.88a1,1,0,0,1-.7071-1.707l7.43-7.43a1,1,0,1,1,1.4141,1.414l-7.43,7.43A.9969.9969,0,0,1,40.0614,57.88Z" class="colorcdeeaa svgShape"></path>
  <path fill="#fe9526" d="M43.29,60.83a5.6347,5.6347,0,0,1-.17.62,1.0112,1.0112,0,0,1-.63.63c-.02,0-.23.08-.61.18a20.2216,20.2216,0,0,1-2.14.43c-.03,0-.06.01-.08.01a20.1367,20.1367,0,0,1-2.82.19c-.33,0-.67,0-1-.02a14.2834,14.2834,0,0,1-9.68-4.09,14.13,14.13,0,0,1-1.8-2.24,16.22,16.22,0,0,1-2.19-10.65,18.8551,18.8551,0,0,1,.69-3.44,1.0349,1.0349,0,0,1,.63-.63c.34-.11,8.38-2.72,14.73,1.94.15.11.29.21.44.33a13.6062,13.6062,0,0,1,1.16,1.03C45.43,50.74,43.89,58.58,43.29,60.83Z" class="colorcdeeaa svgShape"></path>
  <path fill="#53d86a" d="M43.29,60.83a5.6347,5.6347,0,0,1-.17.62,1.0112,1.0112,0,0,1-.63.63c-.02,0-.23.08-.61.18l-9.6-9.61a.996.996,0,0,1,0-1.41,1.0081,1.0081,0,0,1,1.42,0Z" class="color95c45f svgShape"></path>
</svg>
