<svg xmlns="http://www.w3.org/2000/svg" width="64" height="64" viewBox="0 0 16.9 16.9"><path fill="#167ffc" d="M8.7 3.2v.5h6.1q1 .1 1 1V13q0 1-1 1h-2.4v.6h2.4q1.5-.2 1.6-1.6V4.8q-.1-1.6-1.6-1.6z" class="color549ad4 svgShape" color="#000" font-family="sans-serif" font-weight="400" overflow="visible" style="line-height:normal;font-variant-ligatures:normal;font-variant-position:normal;font-variant-caps:normal;font-variant-numeric:normal;font-variant-alternates:normal;font-feature-settings:normal;text-indent:0;text-align:start;text-decoration-line:none;text-decoration-style:solid;text-decoration-color:#000;text-transform:none;text-orientation:mixed;shape-padding:0;isolation:auto;mix-blend-mode:normal"/><path fill="#167ffc" d="M7.7 2.4v2.1h.8Q9 4.5 9 4V3q0-.6-.5-.6z" class="color549ad4 svgShape"/><path fill="#595bd4" d="M7.7 2.4v2.1h.6l.2-.8v-.5q0-.5-.2-.8z" class="color3588cb svgShape"/><path fill="#c36705" d="M8 3.7v-.5C8 2 7 1 5.7 1H3.2q-.3 0-.3.2v4.3q0 .2.3.2h2.6C7 5.8 8 4.8 8 3.7" class="colora7c305 svgShape"/><path fill="#ac5a04" d="M7.3 5.3H4.2L4 5V1h-.8q-.3 0-.3.3v4.3q0 .2.3.2h2.6q.8 0 1.5-.5" class="color94ac04 svgShape"/><path fill="#53d86a" d="M.8 1.9c-.4 0-.4.5 0 .5h2.4c.3 0 .3-.5 0-.5z" class="colore4eff8 svgShape" color="#000" font-family="sans-serif" font-weight="400" overflow="visible" style="line-height:normal;font-variant-ligatures:normal;font-variant-position:normal;font-variant-caps:normal;font-variant-numeric:normal;font-variant-alternates:normal;font-feature-settings:normal;text-indent:0;text-align:start;text-decoration-line:none;text-decoration-style:solid;text-decoration-color:#000;text-transform:none;text-orientation:mixed;shape-padding:0;isolation:auto;mix-blend-mode:normal"/><path fill="#ff9628" d="m5.6 2.1-.3.1-.7 1a.3.3 0 0 0 .2.5h.4l-.6.6a.3.3 0 1 0 .4.4l1-1a.3.3 0 0 0-.2-.5h-.5l.5-.7a.3.3 0 0 0-.2-.4" class="colorffca28 svgShape" color="#000" font-family="sans-serif" font-weight="400" overflow="visible" style="line-height:normal;font-variant-ligatures:normal;font-variant-position:normal;font-variant-caps:normal;font-variant-numeric:normal;font-variant-alternates:normal;font-feature-settings:normal;text-indent:0;text-align:start;text-decoration-line:none;text-decoration-style:solid;text-decoration-color:#000;text-transform:none;text-orientation:mixed;shape-padding:0;isolation:auto;mix-blend-mode:normal"/><path fill="#53d86a" d="M.8 4.5c-.4 0-.4.5 0 .5h2.4c.3 0 .3-.5 0-.5z" class="colore4eff8 svgShape" color="#000" font-family="sans-serif" font-weight="400" overflow="visible" style="line-height:normal;font-variant-ligatures:normal;font-variant-position:normal;font-variant-caps:normal;font-variant-numeric:normal;font-variant-alternates:normal;font-feature-settings:normal;text-indent:0;text-align:start;text-decoration-line:none;text-decoration-style:solid;text-decoration-color:#000;text-transform:none;text-orientation:mixed;shape-padding:0;isolation:auto;mix-blend-mode:normal"/><path fill="#c36705" d="M3.4.8c0-.4-.5-.4-.5 0V6c0 .3.5.3.5 0z" class="colora7c305 svgShape" color="#000" font-family="sans-serif" font-weight="400" overflow="visible" style="line-height:normal;font-variant-ligatures:normal;font-variant-position:normal;font-variant-caps:normal;font-variant-numeric:normal;font-variant-alternates:normal;font-feature-settings:normal;text-indent:0;text-align:start;text-decoration-line:none;text-decoration-style:solid;text-decoration-color:#000;text-transform:none;text-orientation:mixed;shape-padding:0;isolation:auto;mix-blend-mode:normal"/><path fill="#ff9628" d="m5.4 9.5-.3.1-1.5 1.8-2.3.5-.5.3q-.3.2-.3.5v1.6q.1.7.8.8H12q.7-.1.8-.8v-1.9q0-.3-.3-.5l-.5-.3-1-.2c-.6-.5-1.4-1.9-1.9-1.9Z" class="colorffca28 svgShape"/><path fill="#fe9526" d="M.8 12.2q-.3.2-.3.5v1.6q.1.7.8.8H12q.6 0 .8-.6H1.9a1 1 0 0 1-.8-.7V12z" class="colorecb200 svgShape"/><path fill="#53d86a" d="M8.8 9.8q.2 0 .4.2l1.4 1.6H4s1.2-1.8 1.5-1.8z" class="colore4eff8 svgShape"/><path fill="#167ffc" d="M3.6 13.5q-1.3.1-1.5 1.4.2 1.4 1.5 1.5 1.3-.2 1.4-1.5-.1-1.3-1.4-1.4" class="color549ad4 svgShape"/><path fill="#595bd4" d="M2.8 13.7a1.5 1.5 0 1 0 2 2l-.7.2a1.5 1.5 0 0 1-1.3-2.2" class="color3588cb svgShape"/><path fill="#167ffc" d="M9.5 13.5q-1.3.1-1.4 1.4.1 1.3 1.4 1.5 1.4-.1 1.5-1.5-.1-1.3-1.5-1.4" class="color549ad4 svgShape"/><path fill="#595bd4" d="M8.8 13.7a1.5 1.5 0 1 0 2 2l-.7.2a1.5 1.5 0 0 1-1.3-2.2" class="color3588cb svgShape"/><path fill="#53d86a" d="M6 12.4c-.3 0-.3.6 0 .6h.3c.4 0 .4-.6 0-.6z" class="colore4eff8 svgShape" color="#000" font-family="sans-serif" font-weight="400" overflow="visible" style="line-height:normal;font-variant-ligatures:normal;font-variant-position:normal;font-variant-caps:normal;font-variant-numeric:normal;font-variant-alternates:normal;font-feature-settings:normal;text-indent:0;text-align:start;text-decoration-line:none;text-decoration-style:solid;text-decoration-color:#000;text-transform:none;text-orientation:mixed;shape-padding:0;isolation:auto;mix-blend-mode:normal"/><path fill="#c4c5f0" d="M5.5 9.8c-.3 0-1.5 1.8-1.5 1.8h6.6l-.2-.2H4.5l1.3-1.6z" class="colorc4dcf0 svgShape"/><path fill="#ff9628" d="M6.9 9.8v1.8h.5V9.8Z" class="colorffca28 svgShape" color="#000" font-family="sans-serif" font-weight="400" overflow="visible" style="line-height:normal;font-variant-ligatures:normal;font-variant-position:normal;font-variant-caps:normal;font-variant-numeric:normal;font-variant-alternates:normal;font-feature-settings:normal;text-indent:0;text-align:start;text-decoration-line:none;text-decoration-style:solid;text-decoration-color:#000;text-transform:none;text-orientation:mixed;shape-padding:0;isolation:auto;mix-blend-mode:normal"/><path fill="#fe9526" d="M6.9 11.4v.2h.5v-.2z" class="colorecb200 svgShape" color="#000" font-family="sans-serif" font-weight="400" overflow="visible" style="line-height:normal;font-variant-ligatures:normal;font-variant-position:normal;font-variant-caps:normal;font-variant-numeric:normal;font-variant-alternates:normal;font-feature-settings:normal;text-indent:0;text-align:start;text-decoration-line:none;text-decoration-style:solid;text-decoration-color:#000;text-transform:none;text-orientation:mixed;shape-padding:0;isolation:auto;mix-blend-mode:normal"/><path fill="#53d86a" d="M3.6 14.6q-.4 0-.4.3 0 .4.4.4T4 15t-.4-.3" class="colore4eff8 svgShape" color="#000" font-family="sans-serif" font-weight="400" overflow="visible" style="line-height:normal;font-variant-ligatures:normal;font-variant-position:normal;font-variant-caps:normal;font-variant-numeric:normal;font-variant-alternates:normal;font-feature-settings:normal;text-indent:0;text-align:start;text-decoration-line:none;text-decoration-style:solid;text-decoration-color:#000;text-transform:none;text-orientation:mixed;shape-padding:0;isolation:auto;mix-blend-mode:normal"/><path fill="#c4c5f0" d="m3.3 14.7-.1.2q0 .4.4.4T4 15a.4.4 0 0 1-.7-.3" class="colorc4dcf0 svgShape" color="#000" font-family="sans-serif" font-weight="400" overflow="visible" style="line-height:normal;font-variant-ligatures:normal;font-variant-position:normal;font-variant-caps:normal;font-variant-numeric:normal;font-variant-alternates:normal;font-feature-settings:normal;text-indent:0;text-align:start;text-decoration-line:none;text-decoration-style:solid;text-decoration-color:#000;text-transform:none;text-orientation:mixed;shape-padding:0;isolation:auto;mix-blend-mode:normal"/><path fill="#53d86a" d="M9.5 14.6q-.3 0-.4.3 0 .4.4.4.3 0 .4-.4 0-.3-.4-.3" class="colore4eff8 svgShape" color="#000" font-family="sans-serif" font-weight="400" overflow="visible" style="line-height:normal;font-variant-ligatures:normal;font-variant-position:normal;font-variant-caps:normal;font-variant-numeric:normal;font-variant-alternates:normal;font-feature-settings:normal;text-indent:0;text-align:start;text-decoration-line:none;text-decoration-style:solid;text-decoration-color:#000;text-transform:none;text-orientation:mixed;shape-padding:0;isolation:auto;mix-blend-mode:normal"/><path fill="#c4c5f0" d="M9.1 15q0 .3.4.3.3 0 .4-.3a.4.4 0 0 1-.6-.3z" class="colorc4dcf0 svgShape" color="#000" font-family="sans-serif" font-weight="400" overflow="visible" style="line-height:normal;font-variant-ligatures:normal;font-variant-position:normal;font-variant-caps:normal;font-variant-numeric:normal;font-variant-alternates:normal;font-feature-settings:normal;text-indent:0;text-align:start;text-decoration-line:none;text-decoration-style:solid;text-decoration-color:#000;text-transform:none;text-orientation:mixed;shape-padding:0;isolation:auto;mix-blend-mode:normal"/></svg>