<svg xmlns="http://www.w3.org/2000/svg" viewBox="0 0 48 48" id="language">
  <path fill="#3364aa" d="M24 5v14a1.003 1.003 0 0 1-1 1H8.41a1.009 1.009 0 0 0-.7.29l-2 2-.05.05c-.02.01-.04.03-.06.04a1.023 1.023 0 0 1-.22.14A1.005 1.005 0 0 1 4 21.59V5a1.003 1.003 0 0 1 1-1h18a1.003 1.003 0 0 1 1 1Z"></path>
  <path fill="#4279bd" d="M17.03 4a24.749 24.749 0 0 1-8.26 16h-.36a1.009 1.009 0 0 0-.7.29l-2 2-.05.05c-.02.01-.04.03-.06.04a1.023 1.023 0 0 1-.22.14A1.005 1.005 0 0 1 4 21.59V5a1.003 1.003 0 0 1 1-1Z"></path>
  <path fill="#ee4042" d="M44 25v16.59a1 1 0 0 1-1.71.7l-2-2a1.009 1.009 0 0 0-.7-.29H25a1.003 1.003 0 0 1-1-1V25a1.003 1.003 0 0 1 1-1h18a1.003 1.003 0 0 1 1 1Z"></path>
  <path fill="#ff5543" d="M38.39 24a20.618 20.618 0 0 1-9.12 16H25a1.003 1.003 0 0 1-1-1V25a1.003 1.003 0 0 1 1-1Z"></path>
  <path fill="#f2f2f2" d="M10.989 16.903a.99.99 0 0 1-.139-1.97 6.064 6.064 0 0 0 3.401-1.7 5.998 5.998 0 0 0 1.423-2.271H10.99a.99.99 0 1 1 0-1.98h5.941a.99.99 0 0 1 .98 1.13 7.992 7.992 0 0 1-6.78 6.781 1.004 1.004 0 0 1-.142.01Z"></path>
  <path fill="#f2f2f2" d="M13.961 10.961a.99.99 0 0 1-.99-.99V7.99a.99.99 0 1 1 1.98 0v1.98a.99.99 0 0 1-.99.991zM18.001 17q-.039 0-.08-.003a7.522 7.522 0 0 1-5.764-3.459 1 1 0 0 1 1.686-1.076 5.516 5.516 0 0 0 4.235 2.54A1 1 0 0 1 18.001 17zm11.998 20a1 1 0 0 1-.893-1.447l4-8a1 1 0 0 1 1.788.894l-4 8A1 1 0 0 1 30 37z"></path>
  <path fill="#f2f2f2" d="M38.001 37a1 1 0 0 1-.895-.553l-4-8a1 1 0 0 1 1.788-.894l4 8A1 1 0 0 1 38.002 37Z"></path>
  <path fill="#f2f2f2" d="M37.483 33.967h-6.966a1 1 0 0 1 0-2h6.966a1 1 0 0 1 0 2Z"></path>
  <path fill="#333" d="M10 27a1 1 0 0 1-.707-1.707l2-2a1 1 0 0 1 1.414 1.414l-2 2A.997.997 0 0 1 10 27Z"></path>
  <path fill="#333" d="M14 27a.997.997 0 0 1-.707-.293l-2-2a1 1 0 0 1 1.414-1.414l2 2A1 1 0 0 1 14 27Z"></path>
  <path fill="#333" d="M20 35h-7a2.002 2.002 0 0 1-2-2v-9a1 1 0 0 1 2 0v9h7a1 1 0 0 1 0 2zm16-14a1 1 0 0 1-.707-1.707l2-2a1 1 0 0 1 1.414 1.414l-2 2A.997.997 0 0 1 36 21z"></path>
  <path fill="#333" d="M36 21a.997.997 0 0 1-.707-.293l-2-2a1 1 0 0 1 1.414-1.414l2 2A1 1 0 0 1 36 21Z"></path>
  <path fill="#333" d="M36 21a1 1 0 0 1-1-1v-9h-7a1 1 0 0 1 0-2h7a2.002 2.002 0 0 1 2 2v9a1 1 0 0 1-1 1Z"></path>
</svg>
