<svg xmlns="http://www.w3.org/2000/svg" id="MicrochipWithAtom" viewBox="0 0 64 64">
  <path d="M29 4c-.55 0-1 .45-1 1v6c0 .55.45 1 1 1s1-.45 1-1v-6c0-.55-.45-1-1-1ZM23 4c-.55 0-1 .45-1 1v6c0 .55.45 1 1 1s1-.45 1-1v-6c0-.55-.45-1-1-1ZM17 4c-.55 0-1 .45-1 1v6c0 .55.45 1 1 1s1-.45 1-1v-6c0-.55-.45-1-1-1ZM35 4c-.55 0-1 .45-1 1v6c0 .55.45 1 1 1s1-.45 1-1v-6c0-.55-.45-1-1-1ZM41 4c-.55 0-1 .45-1 1v6c0 .55.45 1 1 1s1-.45 1-1v-6c0-.55-.45-1-1-1ZM47 4c-.55 0-1 .45-1 1v6c0 .55.45 1 1 1s1-.45 1-1v-6c0-.55-.45-1-1-1ZM29 52c-.55 0-1 .45-1 1v6c0 .55.45 1 1 1s1-.45 1-1v-6c0-.55-.45-1-1-1ZM23 52c-.55 0-1 .45-1 1v6c0 .55.45 1 1 1s1-.45 1-1v-6c0-.55-.45-1-1-1ZM17 52c-.55 0-1 .45-1 1v6c0 .55.45 1 1 1s1-.45 1-1v-6c0-.55-.45-1-1-1ZM35 52c-.55 0-1 .45-1 1v6c0 .55.45 1 1 1s1-.45 1-1v-6c0-.55-.45-1-1-1ZM41 52c-.55 0-1 .45-1 1v6c0 .55.45 1 1 1s1-.45 1-1v-6c0-.55-.45-1-1-1ZM47 52c-.55 0-1 .45-1 1v6c0 .55.45 1 1 1s1-.45 1-1v-6c0-.55-.45-1-1-1ZM59 28h-6c-.55 0-1 .45-1 1s.45 1 1 1h6c.55 0 1-.45 1-1s-.45-1-1-1ZM59 22h-6c-.55 0-1 .45-1 1s.45 1 1 1h6c.55 0 1-.45 1-1s-.45-1-1-1ZM53 18h6c.55 0 1-.45 1-1s-.45-1-1-1h-6c-.55 0-1 .45-1 1s.45 1 1 1ZM59 34h-6c-.55 0-1 .45-1 1s.45 1 1 1h6c.55 0 1-.45 1-1s-.45-1-1-1ZM59 40h-6c-.55 0-1 .45-1 1s.45 1 1 1h6c.55 0 1-.45 1-1s-.45-1-1-1ZM59 46h-6c-.55 0-1 .45-1 1s.45 1 1 1h6c.55 0 1-.45 1-1s-.45-1-1-1ZM11 28h-6c-.55 0-1 .45-1 1s.45 1 1 1h6c.55 0 1-.45 1-1s-.45-1-1-1ZM11 22h-6c-.55 0-1 .45-1 1s.45 1 1 1h6c.55 0 1-.45 1-1s-.45-1-1-1ZM11 16h-6c-.55 0-1 .45-1 1s.45 1 1 1h6c.55 0 1-.45 1-1s-.45-1-1-1ZM11 34h-6c-.55 0-1 .45-1 1s.45 1 1 1h6c.55 0 1-.45 1-1s-.45-1-1-1ZM11 40h-6c-.55 0-1 .45-1 1s.45 1 1 1h6c.55 0 1-.45 1-1s-.45-1-1-1ZM11 46h-6c-.55 0-1 .45-1 1s.45 1 1 1h6c.55 0 1-.45 1-1s-.45-1-1-1Z" fill="#595bd4" class="color20393d svgShape"></path>
  <rect width="42" height="42" x="11" y="11" rx="4" ry="4" fill="#fe9526" class="colorffcc00 svgShape"></rect>
  <rect width="32" height="32" x="16" y="16" rx="1" ry="1" fill="#167ffc" class="colore94e76 svgShape"></rect>
  <circle cx="32" cy="32" r="3" fill="#595bd4" class="color20393d svgShape"></circle>
  <path d="m42.29,32s0-.01.01-.02c1.62-2.45,1.95-4.75.95-6.48-1.03-1.78-3.29-2.56-6.12-2.4-1.27-2.53-3.08-4.1-5.14-4.1s-3.87,1.57-5.14,4.1c-2.83-.17-5.1.62-6.12,2.4-1,1.73-.66,4.04.95,6.48,0,0,0,.01.01.02,0,0,0,.01-.01.02-1.62,2.45-1.95,4.75-.95,6.48.94,1.62,2.91,2.43,5.4,2.43.24,0,.48-.02.73-.03,1.27,2.53,3.08,4.1,5.14,4.1s3.87-1.57,5.14-4.1c.24.01.49.03.73.03,2.49,0,4.46-.8,5.4-2.43,1-1.73.66-4.04-.95-6.48,0,0,0-.01-.01-.02Zm-.77-5.5c.53.92.32,2.28-.54,3.81-.67-.75-1.44-1.48-2.28-2.17-.18-1.09-.43-2.12-.75-3.06,1.76.02,3.06.52,3.58,1.42Zm-7.03,9.83c-.85.49-1.68.9-2.5,1.24-.82-.34-1.65-.75-2.5-1.24-.83-.48-1.6-1-2.32-1.54-.11-.88-.18-1.81-.18-2.79s.07-1.91.18-2.79c.72-.55,1.5-1.07,2.32-1.54.85-.49,1.68-.9,2.5-1.24.82.34,1.65.75,2.5,1.24.83.48,1.6,1,2.32,1.54.11.88.18,1.81.18,2.79s-.07,1.91-.18,2.79c-.72.55-1.5,1.07-2.32,1.54Zm1.76,1.27c-.11.4-.24.78-.37,1.14-.38-.06-.77-.14-1.18-.25.26-.14.53-.28.79-.43.26-.15.51-.31.76-.47Zm-6.97.89c-.41.1-.8.18-1.18.25-.13-.36-.26-.74-.37-1.14.25.16.5.32.76.47.26.15.53.29.79.43Zm-4.27-5.59c-.29-.3-.56-.6-.81-.9.25-.3.52-.61.81-.9-.01.3-.02.6-.02.9s.01.6.02.9Zm3.09-7.64c.38.06.77.15,1.17.25-.26.14-.52.27-.78.43-.26.15-.51.31-.76.47.11-.4.24-.78.38-1.14Zm6.6.25c.4-.1.8-.18,1.18-.25.13.36.26.74.37,1.14-.25-.16-.5-.32-.76-.47-.26-.15-.53-.29-.79-.43Zm4.27,5.59c.29.3.56.6.81.9-.25.3-.52.61-.81.9.01-.3.02-.6.02-.9s-.01-.6-.02-.9Zm-6.98-10.1c1.04,0,2.12.87,3.02,2.39-.97.2-1.99.49-3.02.88-1.03-.39-2.05-.68-3.02-.88.9-1.52,1.98-2.39,3.02-2.39Zm-9.53,5.5c.52-.9,1.81-1.4,3.58-1.42-.31.94-.57,1.97-.75,3.06-.85.69-1.62,1.42-2.28,2.17-.87-1.53-1.07-2.9-.54-3.81Zm0,11c-.53-.92-.32-2.28.54-3.81.67.75,1.44,1.48,2.28,2.17.18,1.09.43,2.12.75,3.06-1.76-.02-3.06-.52-3.58-1.42Zm9.53,5.5c-1.04,0-2.12-.87-3.02-2.39.97-.2,1.99-.49,3.02-.88,1.03.39,2.05.68,3.02.88-.9,1.52-1.98,2.39-3.02,2.39Zm9.53-5.5c-.52.9-1.81,1.41-3.58,1.42.31-.94.57-1.97.75-3.06.85-.69,1.62-1.42,2.28-2.17.87,1.53,1.07,2.9.54,3.81Z" fill="#53d86a" class="colorffffff svgShape"></path>
</svg>
