<svg xmlns="http://www.w3.org/2000/svg" width="512" height="512" fill="none"><path fill="#db8224" d="M414.4 336.1a2.5 2.5 0 0 0-.7 3.5l53.4 78.5c-5-.8-35-5.3-70.4-11a4268 4268 0 0 1-71.3-12l-6.8-1.5q-.7-.3-.2 0a2.5 2.5 0 0 0-2.8 4.2l1.5.6 1.8.5 5.6 1.2 18.2 3.3A12376 12376 0 0 0 472 423.9a2.5 2.5 0 0 0 2.9-2.5q0-.8-.5-1.4L418 336.8a2.5 2.5 0 0 0-3.5-.7" class="colordb5e24 svgShape"/><path fill="#d5d5ee" d="M138.2 269.5a2.5 2.5 0 0 0-2.3 3.4l.5.8 4.6 5.3a3439 3439 0 0 1 39.6 46.7l41.6 49.3a2.5 2.5 0 0 0 3.9-3.2l-41.7-49.3-44.4-52.3q-.7-.6-1.8-.7" class="coloreed5e3 svgShape"/><path fill="#167ffc" d="M153.6 345.8q-1.1-.1-1.9.5L116 371.5a2.5 2.5 0 1 0 2.9 4.1l35.7-25.3a2.5 2.5 0 0 0-1-4.5" class="color0090eb svgShape"/><path fill="#2b983e" d="m139.7 82.3-102.8 3a2.5 2.5 0 1 0 .2 5l102.7-3a2.5 2.5 0 1 0-.1-5" class="color2b987c svgShape"/><path fill="#925e28" d="M47 430.5a2.5 2.5 0 1 0 0 5h86.2a2.5 2.5 0 0 0 0-5zm48-129.1a2.5 2.5 0 0 0-3.2 1.2l-57 126.9a2.5 2.5 0 1 0 4.5 2l57-126.8a2.5 2.5 0 0 0-1.2-3.3" class="color923d28 svgShape"/><path fill="#167ffc" d="M118 371.1a3 3 0 0 0-2.6 1 3 3 0 0 0-.1 2.8q.5.9 1.5 1l80.6 19.9a3 3 0 0 0 2.6-1 2.5 2.5 0 0 0-1.4-3.9z" class="color0090eb svgShape"/><path fill="#eeeefa" d="M379.5 227.7a2.5 2.5 0 0 0-3.5.7l-66.3 99.5a3 3 0 0 0 0 2.8 2.5 2.5 0 0 0 4.1 0l66.4-99.5a3 3 0 0 0 0-2.8z" class="colorefeefa svgShape"/><path fill="#d5d5ee" d="M304.2 201.7 202.6 218a2.5 2.5 0 0 0-1 4.5q.8.6 1.8.4L305 206.7a2.5 2.5 0 0 0 .2-5z" class="coloreed5e3 svgShape"/><path fill="#2b983e" d="M41 100a2.5 2.5 0 0 0-.4 3.4l56.2 75.2a2.5 2.5 0 0 0 4.1-.2 3 3 0 0 0-.1-2.8l-56.2-75.2a2.5 2.5 0 0 0-3.5-.5" class="color2b987c svgShape"/><path fill="#fe9526" d="M246.7 82.3a2.5 2.5 0 0 0-2 4.2l55.5 63a2.5 2.5 0 0 0 3.8-3.3l-55.6-63q-.6-.7-1.7-.9" class="colorf29637 svgShape"/><path fill="#fe9526" d="M248 82.8a2.5 2.5 0 0 0-3.5.6l-33.2 46.7a2.5 2.5 0 0 0 4 2.9l33.3-46.7a2.5 2.5 0 0 0-.6-3.5" class="colorf29637 svgShape"/><path fill="#d5d5ee" d="M217.6 229.3a84.1 84.1 0 1 1-168.3 0 84.1 84.1 0 0 1 168.3 0" class="coloreed5e3 svgShape"/><path fill="#eeeefa" d="M469.2 174.9a97.5 97.5 0 1 1-195 0 97.5 97.5 0 0 1 195 0" class="colorefeefa svgShape"/><path fill="#454668" d="M345.3 204.2s-40 15.7-46.5 23.6c-6.4 7.8-12 55-12 55s23.6 13.2 84.9 13.2 84.8-13.2 84.8-13.2-5.5-47.2-12-55c-6.4-7.9-46.5-23.6-46.5-23.6l-26.3 1.7z" class="color454a68 svgShape"/><path fill="#d7d7ef" d="M333.6 214.7h76.2l-38.1 79z" class="colord7d7ef svgShape"/><path fill="#ffcc97" d="M371.7 166.1c10.7 0 19.4 7.4 19.4 16.5V206c0 9.1-8.7 16.5-19.4 16.5-10.8 0-19.5-7.4-19.5-16.5v-23.3c0-9.1 8.7-16.5 19.5-16.5" class="colorffaa97 svgShape"/><path fill="#e3a96b" d="M371.7 145.6c10.9 0 19.6 8 19.6 17.9v22.8c0 9.9-8.7 17.8-19.6 17.8s-19.7-8-19.7-17.8v-22.8c0-10 8.8-17.9 19.7-17.9" class="colore36b7a svgShape"/><path fill="#fefffe" d="M352.2 197s-9.3 1.8-11.8 7.1-1.5 11.6-1.5 11.6a68 68 0 0 0 19.9 21.5l12.9-14.8s-19.5-5.6-19.5-25.4m39 0s9.3 1.8 11.8 7.1c2.4 5.3 1.5 11.6 1.5 11.6s-5 8.8-11.7 14.7c-6.8 6-8.2 6.8-8.2 6.8l-13-14.8s19.5-5.6 19.5-25.4" class="colorfffeff svgShape"/><path fill="#454668" d="m371.7 237.2-7.4 1.6-5.9 32.6 13.3 22.3 13.2-22.3-3-16.3-2.9-16.3z" class="color454a68 svgShape"/><path fill="#595bd4" d="m338.9 216.8 35.2 75.4-2.4 3.8c-23.4-17-47.5-43.5-43-50.6 3.2-5.3 5.2-9.2 7.5-13.8 0 0-10.7-6.3-10.7-13.2 0-4.2 14.9-14.3 14.9-14.3s-2.2 5.4-1.5 12.7" class="color7d7e9a svgShape"/><path fill="#2f2f46" d="m371.7 237.2-7.4 1.6-1.3 7.2a14 14 0 0 0 8.7 4.3s5.2-.4 8.6-4.3l-1.3-7.2z" class="color2f3246 svgShape"/><path fill="#595bd4" d="m371.7 222.5-11 12.6s1.3 4.7 4 7.9c2.8 3.1 7 3 7 3s4.2.1 7-3c2.7-3.2 4-8 4-8zm32.9-5.7-35.3 75.4 2.4 3.8c23.4-17 47.5-43.5 43-50.6-3.2-5.3-5.2-9.2-7.5-13.8 0 0 10.7-6.3 10.7-13.2 0-4.2-14.9-14.3-14.9-14.3s2.2 5.4 1.6 12.7" class="color7d7e9a svgShape"/><path fill="#e3a96b" d="M341.8 134.9a24 24 0 0 1 5.5 13 18 18 0 0 1-.6 6.5q-.8 3-2.7 5.1a11 11 0 0 1-10.2 3.5q-6.2-1-11-6.7c-3.1-3.7-5-8.3-5.5-13s.8-8.8 3.3-11.6a11 11 0 0 1 10.2-3.5c4 .6 8 3 11 6.7m59.7 0a24 24 0 0 0-5.4 13 18 18 0 0 0 .5 6.5q.9 3 2.8 5.1 1.9 2.2 4.5 3 2.6 1 5.6.5t5.9-2.2 5.2-4.5a24 24 0 0 0 5.4-13 18 18 0 0 0-.5-6.5q-.9-3-2.8-5.1a11 11 0 0 0-4.5-3q-2.7-1-5.6-.5-3 .4-5.9 2.2a21 21 0 0 0-5.2 4.5" class="colore36b7a svgShape"/><path fill="#ffcc97" d="M371.7 72.7c-25.6 0-42.1 20.6-42.1 46.2v37.4c0 19.7 22.8 42.5 33.2 42.5h17.8c10.4 0 33.2-22.8 33.2-42.5v-37.4c0-25.6-16.6-46.1-42.1-46.2" class="colorffaa97 svgShape"/><path fill="#373748" d="M413.7 143v-8.7l-9.1-15.8V109l2-3.5s-25.2 9-30 9c-5 0-22.7-10.7-30-8.6-7.4 2.2-13.4 8.9-13.4 8.9l2.7 3.7-3.7 14.3-2.7 7v8l-9.3-20.7s-1.8-20.8-2.8-25c-1-4.3 6-25 8-27.2 2.2-2.3 12.8-2.3 12.8-2.3s9.4-14.8 19.3-16.4 34.2 4.3 41 5.2 10.6-1.1 10.2.9l-1.8 8.2s9.1 4.5 12 9 4.4 10 4.4 12.7l-1 33.6c0 1.5-8.6 17-8.6 17" class="color483745 svgShape"/><path fill="#5e5e7a" d="M353.5 86.4s7.2-12.7 18.2-13.7 17.3 5.8 23.6 7.2c6.2 1.5 13.1-2.3 13.1-2.3s-4.3 9.2-19.2 8.2c-15-.9-22.2-5.6-27.8-2.7s-8 3.3-8 3.3" class="color7a5e75 svgShape"/><path fill="#23232d" d="M340.1 74.6c1.8 6.6-1.3 8.5-1.3 8.5l-3 1.5c-1.6.8-5 1.8-5.6 8.4-.7 6.7-8.8 7-8.8 7s.9.6 4.8.9c3.9.2 8.7-8.6 12.3-8.4 3.6.3 9.8 4 9.8 4s.1 1.2 3.3 4.2 20 14.1 25 14 6-3.6 9.8-6.8 7-7.9 7-7.9-12.4 2-16.8-1.6-16 .1-16 .1 1.5-2.4 8.4-4.8c6.8-2.4 16.3 3.5 27.2-.4 10.9-4 12.2-15.7 12.2-15.7s-6.3 8.5-24.2 1.4-34.5 10.7-34.5 11-9.6-15.4-9.6-15.4m78.6 23.9-12.1 7-2 3.6s7.1 7.3 7.5 3c.3-4.1 6.6-13.6 6.6-13.6m-88.7 9.2c-3.2 0-6 1.7-6 1.7l9.2 5.5c3.7-4 .9-7-2.6-7.1z" class="color2d232c svgShape"/><path fill="#2f2f46" d="m310.8 246 7.2 34s-4.3-4.1-9-4.5c-4.9-.3-9.6.1-9.6.1s10 2.3 14 5.5c.9.8 2.9 4.3 3.5 10.6l6.1 1 .3-6.6-5.9-28.1zm121.7 0-6.6 12-5.9 28 .3 6.7 6.1-1c.7-6.3 2.7-9.8 3.6-10.6 4-3.2 14-5.5 14-5.5s-4.8-.4-9.6 0a17 17 0 0 0-9 4.3z" class="color2f3246 svgShape"/><path fill="#e3a96b" d="M374.1 146.8c0-3-3.8-4-4.6.3-.8 5.8 0 7.3-4.8 12-1 1.7-.6 3.9 1 4.9l2 1.6.7.3c2.3.8 4.8-1 5-3.4z" class="colore36b7a svgShape"/><path fill="#454668" d="M113.6 244.4s-32.7 12.8-38 19.2-9.8 45-9.8 45 19.3 10.9 69.4 10.9 69.4-10.8 69.4-10.8-4.5-38.7-9.8-45c-5.3-6.5-38-19.3-38-19.3l-21.6 1.4z" class="color454a68 svgShape"/><path fill="#d7d7ef" d="M104 253h62.4l-31.2 64.6z" class="colord7d7ef svgShape"/><path fill="#ffcc97" d="M135.2 213.2c8.8 0 16 6 16 13.5v19c0 7.5-7.2 13.6-16 13.6s-15.9-6-15.9-13.5v-19c0-7.6 7.1-13.6 16-13.6" class="colorffaa97 svgShape"/><path fill="#e3a96b" d="M135.2 196.4c9 0 16 6.6 16 14.7v18.6c0 8-7 14.6-16 14.6s-16-6.5-16-14.6V211c0-8.1 7.1-14.7 16-14.7" class="colore36b7a svgShape"/><path fill="#fefffe" d="M119.3 238.5s-7.7 1.5-9.7 5.8c-2 4.4-1.2 9.5-1.2 9.5s4 7.1 9.6 12 6.7 5.5 6.7 5.5l10.5-12s-15.9-4.6-15.9-20.8m31.8 0s7.7 1.5 9.7 5.8c2 4.4 1.3 9.5 1.3 9.5s-4.1 7.1-9.6 12-6.7 5.5-6.7 5.5l-10.6-12s16-4.6 16-20.8" class="colorfffeff svgShape"/><path fill="#454668" d="m135.2 271.3-6 1.3-4.8 26.7 10.8 18.3 10.8-18.3-2.4-13.3-2.4-13.4z" class="color454a68 svgShape"/><path fill="#595bd4" d="m108.4 254.6 28.8 61.8-2 3C116.1 305.6 96.4 284 100 278c2.7-4.2 4.3-7.5 6.2-11.2 0 0-8.8-5.2-8.8-10.8 0-3.4 12.2-11.7 12.2-11.7s-1.7 4.4-1.2 10.3" class="color7d7e9a svgShape"/><path fill="#2f2f46" d="m135.2 271.3-6 1.3-1 6c2.8 3.2 7 3.5 7 3.5s4.3-.3 7-3.5l-1-6z" class="color2f3246 svgShape"/><path fill="#595bd4" d="m135.2 259.3-9 10.3s1 4 3.3 6.5c2.3 2.6 5.7 2.4 5.7 2.4s3.4.2 5.7-2.4 3.3-6.5 3.3-6.5zm26.9-4.7-28.9 61.8 2 3c19.1-13.9 38.9-35.5 35.2-41.4-2.6-4.2-4.2-7.5-6.1-11.2 0 0 8.8-5.2 8.8-10.8 0-3.4-12.3-11.7-12.3-11.7s1.8 4.4 1.3 10.3" class="color7d7e9a svgShape"/><path fill="#e3a96b" d="M110.8 187.7a20 20 0 0 1 4.5 10.6q.2 2.9-.5 5.3t-2.2 4.2a9 9 0 0 1-8.3 2.9q-5.1-.9-9-5.5-4-4.7-4.5-10.6t2.7-9.6a9 9 0 0 1 8.3-2.8c3.2.5 6.5 2.4 9 5.5m48.8 0a20 20 0 0 0-4.5 10.6q-.2 2.9.5 5.3t2.3 4.2 3.7 2.5 4.6.4a13 13 0 0 0 4.7-1.8q2.4-1.5 4.3-3.7a20 20 0 0 0 4.5-10.6q.2-2.9-.5-5.3-.7-2.5-2.2-4.3t-3.7-2.4-4.6-.4a13 13 0 0 0-4.8 1.8q-2.4 1.5-4.3 3.7" class="colore36b7a svgShape"/><path fill="#ffcc97" d="M135.2 136.8c-20.9 0-34.4 16.9-34.4 37.8v30.6c0 16.1 18.6 34.7 27.1 34.7h14.6c8.5 0 27.1-18.6 27.1-34.7v-30.6c0-20.9-13.5-37.7-34.4-37.8" class="colorffaa97 svgShape"/><path fill="#2f2f46" d="m85.4 278.5 5.9 27.8s-3.5-3.3-7.4-3.6c-4-.2-7.8.1-7.8.1s8.2 1.9 11.4 4.5c.8.6 2.4 3.5 3 8.6l5 .8.2-5.4-4.9-23zm99.6 0-5.4 9.9-4.8 23 .2 5.3 5-.8c.5-5.1 2.1-8 2.9-8.6 3.2-2.6 11.4-4.5 11.4-4.5s-3.8-.3-7.8 0a14 14 0 0 0-7.4 3.5z" class="color2f3246 svgShape"/><path fill="#e3a96b" d="M137.2 197.4c0-2.5-3.1-3.2-3.8.3-.6 4.7 0 6-3.9 9.7-.9 1.4-.5 3.2.9 4l1.6 1.4.5.3c1.9.6 4-.8 4-2.8v-.1z" class="colore36b7a svgShape"/><path fill="#373748" d="M95.9 183.1c0 7.3 3.3 8.8 4.9 13.2 7.4-4.2 6.5-9.7 7.4-17.4 15.4 4.1 27.9-2 31.7-18.2 3 17 3.7 19.8 20 19.7 0 0-1.4 3.6.8 6 2.2 2.6 5.8 4 5.8 4l3.1 7.2 5.2-14.4c1-10.7 3.1-11.6 3.1-29 0-13.2-6.7-26.7-30-22.6 0 0-11.3-8.5-21-8.5S105.1 133 96 141c-10.5 9.2-3.8 19.7-3.8 19.7 0 8.7 2.5 15 3.8 22.4" class="color483745 svgShape"/><path fill="#23232d" d="m108.2 178.9-9.4-1.8s1.8 3 3.8 5.3c2.1 2.2 5.2.4 5.2.4zm39.7-47.3s-6.2 5.8-8.4 11-.6 14-.6 14-3-3.7-3.7-7.4 0-6.4 0-6.4-5.6-7.1-12-3.9-16.2 13.3-16.2 13.3 5.9-11.3 12.7-15.4 19.7-2.3 19.7-2.3zm12 48.8s8-.4 9.7-1.5c1.7-1-1.3 2.6-4 4.2-2.7 1.5-6.1.4-6.1.4s-.4-1.4.3-3.1" class="color2d232c svgShape"/><path fill="#5e5e7a" d="M146 155.2s6.2-1.5 9 1.9c3 3.3 3.4 5.4 7 6.8 3.6 1.5 6.6.8 6.6.8s-4.9 2.6-9.2 1.4-13.4-11-13.4-11" class="color7a5e75 svgShape"/><path fill="#23232d" d="M146 155.2s6 13.3 12.4 13.4 10.2-3.9 10.2-3.9-9.6 3.1-13.4-3c-3.8-6.3-9.2-6.5-9.2-6.5m-10.8-6s-8-3.7-11.3 5.7-6.8 13.2-14.4 11.5-7.2-3.5-7.2-3.5 7.5 3.2 12.2-1.6 4-10.7 10.1-14.4a30 30 0 0 1 10.6-4.1z" class="color2d232c svgShape"/><path fill="#ffe7ce" d="M344.3 377.8a78.2 78.2 0 1 1-156.5 0 78.2 78.2 0 0 1 156.5 0" class="colorfff2ce svgShape"/><path fill="#373748" d="M302 372.2s1.5 13-2.8 20.4q-6.6 11-6.8 11s-13.8 1.9-20.2-2.6 15.9-36.3 20.5-36.6c4.7-.3 9.4 7.8 9.4 7.8" class="color483745 svgShape"/><path fill="#23232d" d="M297 370s.3 6.8-4.1 10.6c-4.4 3.9 1.5 20 1.5 20l-2 3c-3.4 1.3-6.4.7-9.5.5 0 0 2.2-5.5 1.9-10.4-.3-4.8-4.7-9.3-4.7-9.3l5.1-5.7s3 8 3.2 11.9 0 6.7 0 6.7 2.3-6 1.1-12.2c-1.2-6.3-3-11.1-3-11.1z" class="color2d232c svgShape"/><path fill="#454668" d="M250.8 402.7s-18.8 9.2-22.6 13.7c-3.7 4.5-11.4 32-11.4 32s13.7 7.6 49.2 7.6c35.6 0 49.3-7.7 49.3-7.7s-7.7-27.4-11.4-32c-3.8-4.4-22.6-13.6-22.6-13.6l-15.3 1z" class="color454a68 svgShape"/><path fill="#d7d7ef" d="M244 408.8h44.2l-4.9 9.8L273 456l-7 .1-6.8-.1-10.4-37.3z" class="colord7d7ef svgShape"/><path fill="#ffcc97" d="M266 380.6c6.3 0 11.3 4.3 11.3 9.6v13.5c0 5.3-5 9.6-11.3 9.6-6.2 0-11.2-4.3-11.2-9.6v-13.5c0-5.3 5-9.6 11.2-9.6" class="colorffaa97 svgShape"/><path fill="#e3a96b" d="M266 368.7c6.4 0 11.4 4.7 11.4 10.4v13.2c0 5.8-5 10.4-11.4 10.4-6.3 0-11.4-4.6-11.4-10.4v-13.2c0-5.7 5.1-10.4 11.4-10.4" class="colore36b7a svgShape"/><path fill="#fefffe" d="M254.8 398.6s-2.1 1-3.6 4c-1.4 3.2-.9 6.8-.9 6.8s-.4 5 3.5 8.5c4 3.5 4.8 4 4.8 4l7.4-8.6s-11.2-3.3-11.2-14.7m22.5 0s2.1 1 3.6 4c1.4 3.2.8 6.8.8 6.8s.5 5-3.4 8.5c-4 3.5-4.8 4-4.8 4l-7.5-8.6s11.3-3.3 11.3-14.7" class="colorfffeff svgShape"/><path fill="#454668" d="m266 421.9-4.2.9-3.4 33h15.3l-1.7-23.6-1.7-9.4z" class="color454a68 svgShape"/><path fill="#595bd4" d="m250.3 410 9 45.9-3.4-.1c-13.6-10-14-25-11.5-29.2 2-3 3-5.3 4.4-8 0 0-6.2-3.7-6.2-7.6 0-2.5 8.6-8.3 8.6-8.3s-1.2 3.1-.9 7.3" class="color7d7e9a svgShape"/><path fill="#2f2f46" d="m266 421.9-4.2.9-.6 5.9c2.3 1.6 4.8 1.8 4.8 1.8s2.9-.2 5.3-2.1l-1-5.6z" class="color2f3246 svgShape"/><path fill="#595bd4" d="m266 413.3-6.3 7.3s.7 2.8 2.3 4.6c1.6 1.9 4 1.8 4 1.8s2.5 0 4-1.8c1.7-1.8 2.4-4.6 2.4-4.6z" class="color7d7e9a svgShape"/><path fill="#e3a96b" d="M248.7 362.5a14 14 0 0 1 3.2 7.5q.1 2-.3 3.8a8 8 0 0 1-1.6 3q-1 1.2-2.6 1.8-1.6.5-3.3.2a9 9 0 0 1-3.4-1.2q-1.7-1-3-2.7-2.8-3.3-3.2-7.5a9 9 0 0 1 2-6.8 6 6 0 0 1 5.8-2q3.6.6 6.4 4m34.7 0a14 14 0 0 0-3.2 7.5q-.2 2 .3 3.8t1.6 3a6 6 0 0 0 5.9 2q3.6-.5 6.4-3.9 2.8-3.3 3.2-7.5a9 9 0 0 0-2-6.8 6 6 0 0 0-2.6-1.7q-1.4-.6-3.2-.3t-3.4 1.3q-1.7 1-3 2.6" class="colore36b7a svgShape"/><path fill="#ffcc97" d="M266 326.4c-14.8 0-24.8 12-24.4 26.8l.6 19.4c.3 11.4 17.1 27 23.1 27h1.5c6 0 22.8-15.6 23.1-27l.6-19.4c.4-14.8-9.6-26.7-24.5-26.8" class="colorffaa97 svgShape"/><path fill="#2f2f46" d="m230.7 427 4.2 19.7s-2.5-2.4-5.3-2.6-5.5 0-5.5 0 5.8 1.4 8.1 3.3c.6.4 1.7 2.4 2 6l3.6.7.2-3.9-3.4-16.3zm70.7 0-3.9 7-3.4 16.2.2 3.9 3.5-.6c.4-3.7 1.5-5.7 2-6.1 2.4-1.9 8.2-3.2 8.2-3.2s-2.8-.3-5.6 0a10 10 0 0 0-5.2 2.5z" class="color2f3246 svgShape"/><path fill="#e3a96b" d="M267.5 369.4c0-1.8-2.3-2.3-2.7.2-.5 3.4 0 4.3-2.8 7a2 2 0 0 0 .6 2.8l1.1 1 .4.1a2.2 2.2 0 0 0 3-2z" class="colore36b7a svgShape"/><path fill="#23232d" d="M274 340.5s-4.6-3.2-13.7-1.8c-9 1.3-2.4-8.9 6.7-7.5 9.1 1.3 7 9.3 7 9.3" class="color2d232c svgShape"/><path fill="#373748" d="M274 340.5s-1-9.3-8-6.4-5.8 19.9-10.2 24.9c-8 9.2-6.5 8-6.5 18.5 0 9.2 11.8 18.6 7.2 31.3 0 0-18-5-27-14-4.6-4.6 2.7-18.7 1.6-26.9-1.5-11-5-32.7 13.7-44.5 6-3.7 19.5-6.7 23.9-6.7s10.6 6 10.6 6 9.4-4.8 13 1.6c3.4 6.4 5.3 28.8 5.3 28.8 2.4 5 4.5 9.8 4.5 19.1 0 0-21.4-7.6-20.3-19.7 1.2-12.2-3.6-12-7.9-12" class="color483745 svgShape"/><path fill="#23232d" d="M274 340.5s1.7-7.5 2.7-9.3-6-7.7-11.7-5.2c-5.6 2.4-7 4-7 3.8a10 10 0 0 1 9.7-6.4c7.4 0 10.7 4 10.7 4l2.1-2.8s-1.7 9.9-.7 11.9 5 8.4 7.7 9.8c2.6 1.5 7.6.3 7.6.3s-6 2.5-9.6 1.5-3.6-4.7-5.3-5.9c-1.8-1.2-2.6-1.7-6.3-1.7" class="color2d232c svgShape"/><path fill="#595bd4" d="m281.7 410-8.9 45.9 3.4-.1c13.6-10 14-25 11.5-29.2-2-3-3-5.3-4.4-8 0 0 6.2-3.7 6.2-7.6 0-2.5-8.6-8.3-8.6-8.3s1.2 3.1.8 7.3" class="color7d7e9a svgShape"/><path fill="#5e5e7a" d="M255.8 359c-13.9 3.9-15.8 16.4-19.8 24.3-3 4.3-5.2 4.3-5.2 4.3s3.7 1.4 7.2-2c3.6-3.5 3.4-8 6.5-13.9s7.4-9.7 8.7-11a7 7 0 0 1 2.6-1.7" class="color7a5e75 svgShape"/><path fill="#23232d" d="M255.8 359s-9.4 10.6-12.1 19.8c-2.7 9.1-1.1 14.5-1.1 14.5s-4.2-7.8-1.4-17.3c2.7-9.5 9.8-16 14.6-17" class="color2d232c svgShape"/><path fill="#0074ff" d="M137.2 373.6a21 21 0 0 1-5.8 14.3 20 20 0 0 1-14 6 19 19 0 0 1-14-6 20 20 0 0 1-5.8-14.3 21 21 0 0 1 5.8-14.4 20 20 0 0 1 14-6 19 19 0 0 1 14 6 20 20 0 0 1 5.8 14.4" class="color00ccff svgShape"/><path fill="#ff972a" d="M506 421.4a35 35 0 0 1-9.9 24.5 34 34 0 0 1-23.7 10.1 33 33 0 0 1-23.8-10.1 35 35 0 0 1-9.9-24.5 35 35 0 0 1 9.9-24.4 33 33 0 0 1 47.5 0 35 35 0 0 1 9.9 24.4" class="colorff7f2a svgShape"/><path fill="#53d86a" d="M68 87.9c0 8.4-3.2 16.5-9 22.5A30.6 30.6 0 0 1 8.3 100 33 33 0 0 1 15 65.3 31 31 0 0 1 37 56c8.1 0 16 3.4 21.8 9.3S68 79.4 68 88" class="color2fb589 svgShape"/><path fill="#ff9f3a" d="M264.9 84.8c0 5-2 9.8-5.4 13.4a18 18 0 0 1-30-6.1 19 19 0 0 1 4-20.6 18 18 0 0 1 13-5.5q7.7.1 13 5.5c3.5 3.5 5.4 8.3 5.4 13.3" class="colorffb63a svgShape"/><path fill="#ff972a" d="M434.2 338.2c0 5-2 9.8-5.4 13.3a18 18 0 0 1-30-6 19 19 0 0 1 4-20.6 18 18 0 0 1 13-5.6c4.9 0 9.5 2 13 5.6 3.4 3.5 5.4 8.3 5.4 13.3" class="colorff7f2a svgShape"/><path fill="#ae7130" d="M55.4 430.5c0 5-2 9.8-5.4 13.3a18 18 0 0 1-30-6 19 19 0 0 1 4-20.6 18 18 0 0 1 13-5.5c4.9 0 9.5 2 13 5.5 3.4 3.5 5.4 8.3 5.4 13.3" class="colorae5130 svgShape"/><path fill="#53d86a" d="M153.2 86.4q-.1 4.6-3.2 7.9a10.8 10.8 0 0 1-17.8-3.7 12 12 0 0 1 2.3-12.2 11 11 0 0 1 7.8-3.3q4.4 0 7.7 3.3 3.1 3.3 3.2 8" class="color2fb589 svgShape"/><path fill="#ff9f3a" d="M224.2 131.6q0 4.6-3.2 7.9a10.8 10.8 0 0 1-17.8-3.7 12 12 0 0 1 2.4-12.2 11 11 0 0 1 7.7-3.3q4.6 0 7.7 3.3t3.2 8" class="colorffb63a svgShape"/><path fill="#ae7130" d="M143.2 433a12 12 0 0 1-3.4 8.3 11 11 0 0 1-8 3.4 11 11 0 0 1-8-3.4 12 12 0 0 1-3.3-8.3 12 12 0 0 1 3.3-8.2 11 11 0 0 1 8-3.4 11 11 0 0 1 8 3.4 12 12 0 0 1 3.4 8.2" class="colorae5130 svgShape"/><path fill="#0074ff" d="M167 345.8a12 12 0 0 1-3.3 8.2 11 11 0 0 1-8 3.5 11 11 0 0 1-8-3.5 12 12 0 0 1-3.4-8.2 12 12 0 0 1 3.3-8.2 11 11 0 0 1 8-3.5 11 11 0 0 1 8 3.5 12 12 0 0 1 3.4 8.2" class="color00ccff svgShape"/></svg>