<svg xmlns="http://www.w3.org/2000/svg" viewBox="0 0 512 512"><g class="color000000 svgShape"><g class="color000000 svgShape"><linearGradient id="a" x1="285" x2="226.6" y1="-205.9" y2="880.2" gradientUnits="userSpaceOnUse"><stop class="stopColoreae9fe svgShape" offset="0" stop-color="#e9e9fe"/><stop class="stopColoreeeefe svgShape" offset=".4" stop-color="#eeeefe"/><stop class="stopColorfbfbff svgShape" offset=".9" stop-color="#fbfffc"/><stop class="stopColorffffff svgShape" offset="1" stop-color="#fff"/></linearGradient><path fill="url(#a)" d="M468.8 264.3c-9.5-7.4-21-13.8-25.4-25-6-15.2 3.6-31.6 9.3-47C470 145.6 447.8 90 408 59.8 332 2.1 183.7 22.3 163 102c-8.8 33.6 6.9 72-9.2 103-20.3 39-74 41.6-108.7 58.9C2 285.4-6.4 332 24.4 367.7c11.3 13 25.7 22 36.1 36.3 15 20.7 23.4 43.5 43.5 60.6 28.2 24 75.5 30 100.5 2.6 14.1-15.4 18.7-38.1 34-52.3 20.3-18.5 52.3-16 78-6.5s49.7 25 76.9 29.4c42.4 6.8 87.9-18 105-57.5a101 101 0 0 0-29.6-116"/><g class="color000000 svgShape"><path fill="#167ffc" d="M227.6 127v63.9c0 5 4 9 9 9h57l21.6 18.2c1.5 1.2 3.7.2 3.7-1.7v-16.5h5.8c5 0 9-4 9-9v-64c0-5-4-9-9-9h-88c-5 0-9.1 4-9.1 9" class="color2769fd svgShape"/><path fill="#ededed" d="M257.9 159.4a8.7 8.7 0 1 1-17.5 0 8.7 8.7 0 0 1 17.5 0m31.4 0a8.7 8.7 0 1 1-17.4 0 8.7 8.7 0 0 1 17.4 0m31.5 0a8.7 8.7 0 1 1-17.4 0 8.7 8.7 0 0 1 17.4 0" class="colorededed svgShape"/><path fill="#f99f40" d="m228.4 405 38.2 32.5a18.2 18.2 0 0 0 25-26.3l6.7 5.6a18.2 18.2 0 1 0 23.6-27.7l3.7 3.2a18.2 18.2 0 1 0 23.6-27.7l-7.4-6.4a18.1 18.1 0 1 0 23.6-27.7l-38.2-32.4-72.5-60.3s-25-9.2-52 1.9l-47-6.4-49.1 82.5z" class="colorf9bb40 svgShape"/><path fill="#fe9526" d="M160.3 356.5 147.1 367a16.5 16.5 0 1 1-20.7-25.6l13.3-10.5a16.5 16.5 0 0 1 20.7 25.6" class="colord8901d svgShape"/><path fill="#fe9526" d="m194.4 370.7-26.2 21.2a16.5 16.5 0 0 1-20.7-25.6l26.2-21.2a16.5 16.5 0 1 1 20.7 25.6" class="colord8901d svgShape"/><path fill="#fe9526" d="m215.4 395.7-19 15.2a16.5 16.5 0 0 1-20.7-25.6l19-15.2a16.5 16.5 0 1 1 20.7 25.6" class="colord8901d svgShape"/><path fill="#fe9526" d="m239 419-13.3 10.6A16.5 16.5 0 0 1 205 404l13.3-10.6A16.5 16.5 0 0 1 239 419m177.5-123.3-51.2 34.9-79.5-67-14.7 7.3a47 47 0 0 1-43.8-1.6 11 11 0 0 1 .4-19.2l35.8-19.3c4.4-2.3 9.6-2.9 14.4-1.6l51.4 5.7 32.3-19z" class="colord8901d svgShape"/><path fill="#595bd4" d="m387 198.5 53.8 78.5a12 12 0 0 1-3.1 16.7l-24.2 16.5A12 12 0 0 1 397 307l-53.8-78.5a12 12 0 0 1 3.2-16.6l24.1-16.6a12 12 0 0 1 16.6 3.1" class="color386e93 svgShape"/><path fill="#ffae58" d="m125 209.4-53.8 78.4a12 12 0 0 0 3.1 16.7L98.5 321a12 12 0 0 0 16.6-3l53.8-78.6a12 12 0 0 0-3.2-16.6l-24.1-16.5a12 12 0 0 0-16.6 3" class="colorff5859 svgShape"/><path fill="#53d86a" d="M261.4 79.2v64c0 5-4 9-9 9h-57l-21.6 18.2a2.3 2.3 0 0 1-3.7-1.7v-16.5h-5.7c-5 0-9-4-9-9v-64c0-5 4-9 9-9h88c5 0 9 4 9 9" class="color5edb6b svgShape"/><path fill="#2e308e" d="M236.6 203.8h55.6l20.6 17.2a6 6 0 0 0 6.4.9 6 6 0 0 0 3.5-5.4v-12.7h2c7 0 12.7-5.8 12.7-12.8v-64c0-7-5.7-12.8-12.7-12.8h-59.5v-35c0-7-5.7-12.7-12.8-12.7h-88c-7 0-12.8 5.7-12.8 12.7v64c0 7 5.7 12.8 12.8 12.8h2v12.7a6 6 0 0 0 3.4 5.4q1.3.6 2.6.6a6 6 0 0 0 3.8-1.4l20.6-17.3h27v35c0 7 5.8 12.8 12.8 12.8m28.6-60.6v-21.5h59.5c2.9 0 5.2 2.4 5.2 5.3v64c0 2.9-2.3 5.3-5.2 5.3h-5.8c-2 0-3.7 1.6-3.7 3.7v13.2l-19.2-16q-1.1-1-2.5-1h-56.9c-2.9 0-5.3-2.3-5.3-5.2v-35h6q-.6 1.5-.6 3.4a12.5 12.5 0 0 0 25 0q0-3.1-1.5-5.6v.3H259c3.7-2.2 6.2-6.3 6.2-10.9m-11 16.2a5 5 0 0 1-10 0 5 5 0 0 1 1.4-3.4h7.1a5 5 0 0 1 1.4 3.4m-58.7-11q-1.4 0-2.4 1l-19.2 16v-13.2c0-2-1.7-3.7-3.8-3.7h-5.7c-3 0-5.3-2.4-5.3-5.3v-64c0-2.9 2.4-5.2 5.3-5.2h88c3 0 5.3 2.3 5.3 5.2v64c0 3-2.4 5.3-5.3 5.3z" class="color332e8e svgShape"/><path fill="#2e308e" d="M280.6 171.9a12.5 12.5 0 1 0 0-25 12.5 12.5 0 0 0 0 25m0-17.4a5 5 0 0 1 5 5 5 5 0 1 1-5-5m31.5 17.4a12.5 12.5 0 1 0 0-25 12.5 12.5 0 0 0 0 25m0-17.4a5 5 0 0 1 5 5 5 5 0 1 1-5-5m78 42c-4.9-7.2-14.7-9-21.8-4.2L344 209a16 16 0 0 0-6.3 16.7l-9.3 5.4-50-5.5a23 23 0 0 0-16.7 2l-10.1 5.4a82 82 0 0 0-49.5 3l-27.5-3.8c-.2-5.3-2.9-9.7-6.8-12.4l-24.2-16.5c-7.1-5-17-3.1-21.8 4L68 285.8c-4.9 7.2-3 17 4 21.9L96.4 324c4.8 3.3 11 3.7 16.4.8l14.8 10.9-3.4 2.7a20.2 20.2 0 0 0 14.1 35.9 20.2 20.2 0 0 0 27.7 23.2 20 20 0 0 0 29.3 18.5 20.2 20.2 0 0 0 32.8 16.4l13.3-10.5.6-.6 22.2 19a22 22 0 0 0 36.2-17.8 22 22 0 0 0 31.5-23 22 22 0 0 0 23.8-33.4 21.9 21.9 0 0 0 15.5-35l26.5-18.1c5.4 3.8 12.5 4 18 .2l24.2-16.6c7.2-4.9 9-14.7 4-21.8zM265.3 234a16 16 0 0 1 12.2-1.1l51.4 5.6q1.3.1 2.4-.5l9.8-5.8 51.5 75.1-27 18.4-14.2-12h-.1l-63.1-53.1a4 4 0 0 0-4.1-.5l-14.7 7.3a43 43 0 0 1-40.2-1.4 7 7 0 0 1-3.6-6.3q.1-4.4 3.9-6.4zM100.6 318l-24.2-16.5a8 8 0 0 1-2.1-11.4l53.8-78.5a8 8 0 0 1 11.4-2.1l24.1 16.5a8 8 0 0 1 2.2 11.4L112 315.8a8 8 0 0 1-11.4 2.1m26.3 44.3a12.7 12.7 0 0 1 2-17.8l13.1-10.6a12.7 12.7 0 0 1 18.2 17.3c-15 12.3-15.1 12.1-17 14a13 13 0 0 1-16.3-3m39 26.7A12.7 12.7 0 0 1 148 371c.3-.2 14.8-11 17.7-14.7l10.4-8.3a12.7 12.7 0 0 1 17.9 1.9c4.1 5.2 3.7 13-1.6 17.3-19.7 15.9-8.1 6.1-26.6 21.7m10.3 17.1a13 13 0 0 1 0-15.7c21.8-17.8 20.8-16.8 22.1-18.1a12.7 12.7 0 0 1 14.7 20.6l-18.9 15.1a12.7 12.7 0 0 1-17.9-1.9m60.4 10.1-13.2 10.5a12.7 12.7 0 0 1-20.6-11.2c.9-8.3 7.5-9.8 17.8-19a12.7 12.7 0 0 1 16 19.7m128-62.3c-5.1 6-14.2 6.8-20.4 1.6a3.8 3.8 0 0 0-4.9 5.7l7.5 6.3c6 5.2 6.8 14.3 1.6 20.4s-14.2 6.8-20.4 1.6l-3.7-3.1a3.8 3.8 0 0 0-4.8 5.7 14.5 14.5 0 0 1-18.8 22l-6.7-5.7a3.7 3.7 0 0 0-5.1 5.4c5 5.4 5.2 13.7.4 19.3-5.1 6-14.2 6.8-20.3 1.6l-22.5-19c7.7-15-5-32.2-21.5-29.2a20.2 20.2 0 0 0-21.3-23.6 20.2 20.2 0 0 0-32.3-20.6l-1.2 1a20.2 20.2 0 0 0-32.8-15.2l-3.8 3-15.2-11.2c56.7-83 53.6-78 54.8-80.4l29 4q1 0 2-.3c14-5.7 27.6-5.7 36.9-4.5l-15.2 8.2a15 15 0 0 0-7.8 12.8c0 5.5 2.6 10.3 7.3 13a51 51 0 0 0 47.4 1.7l12.4-6.3 77.7 65.4c6 5.1 6.9 14.2 1.7 20.4m71-63.2L411.4 307A8 8 0 0 1 400 305l-53.8-78.5a8 8 0 0 1 2.2-11.4l24.1-16.6a8 8 0 0 1 11.4 2.2l53.8 78.4a8 8 0 0 1-2.1 11.5M210.3 94.8c3.6 0 6.5 2.9 6.5 6.5a3.8 3.8 0 0 0 7.5 0A14 14 0 0 0 214 87.8v-1.4a3.8 3.8 0 0 0-7.5 0v1.4a14 14 0 0 0 3.5 27.5h.3a6.5 6.5 0 1 1-6.5 6.5 3.8 3.8 0 0 0-7.5 0 14 14 0 0 0 10.2 13.5v.7a3.8 3.8 0 0 0 7.5 0v-.7a14 14 0 0 0-3.7-27.5 6.5 6.5 0 1 1 0-13" class="color332e8e svgShape"/></g></g></g></svg>