<svg xmlns="http://www.w3.org/2000/svg" width="64" height="64" viewBox="0 0 64 64" id="salary">
  <g fill="#000000" class="color000000 svgShape">
    <path fill="#d7e7f7" d="M36.49424 22c-.55228 0-1 .4477-1 1v1.1445c-1.71578.4499-3 2.0052-3 3.8555 0 2.1973 1.80271 4 4 4 1.11641 0 2 .8836 2 2 0 1.1164-.88359 2-2 2-1.11641 0-2-.8836-2-2 0-.5523-.44772-1-1-1-.55228 0-1 .4477-1 1 0 1.8503 1.28422 3.4056 3 3.8555V39c0 .5523.44772 1 1 1 .55228 0 1-.4477 1-1v-1.1445c1.71578-.4499 3-2.0052 3-3.8555 0-2.1809-1.77614-3.9715-3.95117-3.998-.0163-.0004-.0326-.0004-.0488 0-1.11641 0-2-.8836-2-2 0-1.1164.88359-2 2-2 1.11641 0 2 .8836 2 2 0 .5523.44772 1 1 1 .55228 0 1-.4477 1-1 0-1.8503-1.28422-3.4056-3-3.8555V23c0-.5523-.44772-1-1-1zM29.9083 8.9941c-.65061 0-1.2557.1948-1.77539.5157-.977.6032-1.63867 1.6752-1.63867 2.8984v1.1719c0 1.1538.58638 2.1777 1.47266 2.7969.55304.3863 1.22142.6171 1.9414.6171h13.17188c.71998 0 1.38836-.2308 1.9414-.6171.88628-.6192 1.47266-1.6431 1.47266-2.7969v-1.1719c0-1.2232-.66167-2.2952-1.63867-2.8984C44.33588 9.1889 43.73079 8.9941 43.08018 8.9941z" class="colordfe6e9 svgShape"></path>
    <path fill="#8fc7ff" d="M 44.17198,49.8633 40.51963,52 H 23.89268 c -0.55228,0 -1,0.4477 -1,1 0,0.5523 0.44772,1 1,1 h 14.56445 c 2.66259,0.018 4.91848,-1.7316 5.71485,-4.1367 z" class="colorffae8f svgShape"></path>
    <path fill="#c2e0ff" d="m 12.0001,40.83 v 19.7559 c 0,0.4936 -0.11108,0.9615 -0.30273,1.3868 C 13.7142,63.2824 16.07182,64 18.5001,64 h 24.99805 c 0.29684,0 0.68534,-0.2734 1,-0.4629 L 61.02354,53.873 h 0.002 c 2.83366,-1.6469 3.8128,-5.3173 2.19336,-8.1796 h -0.002 c -1.66045,-2.9145 -5.33234,-3.8463 -8.13672,-2.2051 -3.63779,2.1219 -7.27254,4.249 -10.90822,6.3745 -0.79637,2.4051 -3.05226,4.1552 -5.71485,4.1367 H 23.89266 c -0.55228,0 -1,-0.4477 -1,-1 0,-0.5523 0.44772,-1 1,-1 h 16.62709 l 3.65235,-2.1367 c 0.19114,-0.5774 0.32358,-1.1811 0.32812,-1.8203 0,-3.3215 -2.71367,-6.0352 -6.03516,-6.0352 L 26.60557,42 c -1.29653,-1.1065 -4.10033,-3.0221 -8.10547,-3.0003 -2.35209,0.013 -4.46447,0.6607 -6.5,1.8303 z" class="colorffd3c2 svgShape"></path>
    <path fill="#ffc107" d="m 27.9669,16.377 c -6.09788,4.9817 -10.12253,14.4128 -10.32813,22.6621 1.93338,-0.1352 5.59844,0.086 8.9668,2.9609 h 11.85937 c 3.32149,0 6.03516,2.7137 6.03516,6.0352 -0.005,0.6392 -0.13696,1.2429 -0.32812,1.8203 L 55.0294,43.5137 c 0.21757,-1.1839 0.34179,-2.4466 0.34179,-3.8125 0,-8.4003 -4.08835,-18.2098 -10.34961,-23.3242 -0.55304,0.3863 -1.22142,0.6171 -1.9414,0.6171 H 29.9083 c -0.71998,0 -1.38836,-0.2308 -1.9414,-0.6171 z M 36.49424,22 c 0.55228,0 1,0.4477 1,1 v 1.1445 c 1.71578,0.4499 3,2.0052 3,3.8555 0,0.5523 -0.44772,1 -1,1 -0.55228,0 -1,-0.4477 -1,-1 0,-1.1164 -0.88359,-2 -2,-2 -1.11641,0 -2,0.8836 -2,2 0,1.1164 0.88359,2 2,2 2.19729,0 4,1.8027 4,4 0,1.8503 -1.28422,3.4056 -3,3.8555 V 39 c 0,0.5523 -0.44772,1 -1,1 -0.55228,0 -1,-0.4477 -1,-1 v -1.1445 c -1.71578,-0.4499 -3,-2.0052 -3,-3.8555 0,-0.5523 0.44772,-1 1,-1 0.55228,0 1,0.4477 1,1 0,1.1164 0.88359,2 2,2 1.11641,0 2,-0.8836 2,-2 0,-1.1164 -0.88359,-2 -2,-2 -2.19729,0 -4,-1.8027 -4,-4 0,-1.8503 1.28422,-3.4056 3,-3.8555 V 23 c 0,-0.5523 0.44772,-1 1,-1 z" class="colorda8c36 svgShape"></path>
    <path fill="#8de683" d="M 3.41416,37 C 1.54039,37 10e-5,38.5403 10e-5,40.4141 V 60.5859 C 10e-5,62.4597 1.54039,64 3.41416,64 h 5.17188 c 1.99193,0 3.41406,-1.6848 3.41406,-3.4141 V 40.4141 C 12.0001,38.5403 10.45981,37 8.58604,37 Z" class="color1e90ff svgShape"></path>
    <path fill="#ffc107" d="M 24.74619,1.332 C 24.4646,1.6825 24.39825,1.99 24.59971,2.4414 l 3.5332,7.0684 C 28.6526,9.1889 29.25769,8.9941 29.9083,8.9941 h 13.17188 c 0.65061,0 1.2557,0.1948 1.77539,0.5157 L 48.3458,2.5293 C 48.60047,2.1174 48.50138,1.6464 48.254,1.3418 47.53253,0.5273 46.47214,0.0098 45.30478,0.0098 c -1.16748,0 -2.22777,0.5174 -2.94922,1.332 C 41.99566,1.7481 41.48412,2 40.90243,2 40.32065,2 39.80917,1.7482 39.44931,1.3418 38.72796,0.5274 37.66757,0.0098 36.50009,0.0098 c -1.16736,0 -2.22776,0.5175 -2.94922,1.332 -0.35991,0.4063 -0.87142,0.6562 -1.45312,0.6562 -0.58178,0 -1.09129,-0.2498 -1.45118,-0.6562 h -0.002 -0.002 C 30.36317,1.0219 29.34184,0 27.93489,0 26.52793,0 25.46765,0.5174 24.74619,1.332 Z" class="colorda8c36 svgShape"></path>
    <path fill-rule="evenodd" d="M 27.6955,0 C 26.528,0 25.4677,0.5174 24.7462,1.332 24.3894,1.7494 24.5177,2.2719 24.5999,2.4414 l 3.5313,7.0605 c -0.9783,0.603 -1.6368,1.6822 -1.6368,2.9063 V 13.58 c 0,1.1502 0.5813,2.1733 1.4629,2.793 -6.0924,4.9815 -10.1216,14.4158 -10.3301,22.6602 -1.9978,0.1398 -3.9257,0.7571 -5.6269,1.7929 V 40.414 C 12.0001,38.5403 10.4599,37 8.5861,37 H 3.4142 C 1.5404,37 2e-4,38.5403 2e-4,40.4141 V 60.5859 C 2e-4,62.4597 1.5404,64 3.4142,64 h 5.1719 c 1.376,0 2.569,-0.8322 3.1074,-2.0156 C 13.7098,63.293 16.0729,64 18.5001,64 L 43.467,63.981 c 0.1777,2e-4 0.3523,-0.047 0.5058,-0.1367 l 17.0508,-9.9707 v 0 c 2.8337,-1.6469 3.8128,-5.3175 2.1933,-8.1797 v 0 c -1.6647,-2.9216 -5.3382,-3.8427 -8.1368,-2.2051 l -0.039,0.023 c 0.2159,-1.1797 0.3301,-2.4462 0.3301,-3.8066 0,-8.3977 -4.0817,-18.212 -10.3398,-23.3281 0.8816,-0.6198 1.4629,-1.6428 1.4629,-2.793 v -1.1719 c 0,-1.2241 -0.6585,-2.3032 -1.6368,-2.9062 L 48.3242,2.5724 C 48.5896,2.1936 48.5605,1.6823 48.2542,1.336 47.5325,0.5217 46.4721,0.0041 45.3047,0.0041 c -1.1674,0 -2.2277,0.5174 -2.9492,1.332 -0.3598,0.4063 -0.8714,0.6582 -1.4531,0.6582 -0.5818,0 -1.0933,-0.2518 -1.4531,-0.6582 C 38.7279,0.5175 37.6675,0 36.5,0 35.3327,0 34.2723,0.5176 33.5508,1.332 33.191,1.7383 32.6795,1.9883 32.0977,1.9883 c -0.5818,0 -1.0913,-0.2499 -1.4512,-0.6563 v 0 C 29.9231,0.5175 28.8627,0 27.6954,0 Z m 0,2 c 0.5817,0 1.0932,0.2519 1.4531,0.6582 0.7214,0.8146 1.7817,1.3301 2.9492,1.3301 1.1674,0 2.2278,-0.5156 2.9492,-1.3301 C 35.4069,2.2519 35.9184,2 36.5001,2 c 0.5818,0 1.0933,0.2519 1.4532,0.6582 0.7214,0.8146 1.7817,1.332 2.9492,1.332 1.1674,0 2.2278,-0.5175 2.9492,-1.332 C 44.2116,2.2519 44.7231,2 45.3048,2 c 0.3465,0 0.6664,0.09 0.9453,0.2481 l -3.373,6.746 H 30.1134 L 26.7423,2.2519 C 27.0227,2.0916 27.3464,2 27.6955,2 Z m 2.2129,8.9941 h 13.1718 c 0.7929,0 1.4141,0.6212 1.4141,1.4141 v 1.1719 c 0,0.7929 -0.6212,1.414 -1.4141,1.414 h -0.205 c -0.01,-10e-5 -0.019,-10e-5 -0.029,0 H 29.9086 c -0.7928,0 -1.414,-0.6211 -1.414,-1.414 v -1.1719 c 0,-0.7929 0.6212,-1.4141 1.414,-1.4141 z m 0.5644,6 h 12.0449 c 6.1903,4.1633 10.8535,14.4202 10.8535,22.7071 0,1.9928 -0.2618,3.7161 -0.7304,5.209 l -8.4317,4.9316 c 0.1844,-0.5679 0.2866,-1.1717 0.2911,-1.7988 v 0 0 0 0 c 1e-4,-3.3211 -2.7137,-6.035 -6.0352,-6.035 H 26.6193 c -1.9735,-1.6869 -4.4165,-2.7141 -6.9902,-2.9473 0.2331,-8.167 4.8132,-18.0035 10.8437,-22.0586 z M 36.4943,22 c -0.5523,0 -1,0.4477 -1,1 v 1.1289 c -1.7188,0.4478 -3,2.0186 -3,3.8711 0,2.1973 1.8027,4 4,4 1.1164,0 2,0.8836 2,2 0,1.1164 -0.8836,2 -2,2 -1.1164,0 -2,-0.8836 -2,-2 0,-0.5523 -0.4477,-1 -1,-1 -0.5523,0 -1,0.4477 -1,1 0,1.8525 1.2812,3.4233 3,3.8711 V 39 c 0,0.5523 0.4477,1 1,1 0.5523,0 1,-0.4477 1,-1 v -1.1289 c 1.7188,-0.4478 3,-2.0186 3,-3.8711 0,-2.1973 -1.8027,-4 -4,-4 -1.1164,0 -2,-0.8836 -2,-2 0,-1.1164 0.8836,-2 2,-2 1.1164,0 2,0.8836 2,2 0,0.5523 0.4477,1 1,1 0.5523,0 1,-0.4477 1,-1 0,-1.8525 -1.2812,-3.4233 -3,-3.8711 V 23 c 0,-0.5523 -0.4477,-1 -1,-1 z M 3.4142,39 h 5.1719 c 0.7929,0 1.414,0.6212 1.414,1.4141 V 60.5859 C 10.0001,61.3788 9.379,62 8.5861,62 H 3.4142 C 2.6213,62 2.0001,61.3788 2.0001,60.5859 V 40.4141 C 2.0001,39.6212 2.6213,39 3.4142,39 Z m 15.0859,2 c 0.029,0 0.059,0 0.088,0 0.014,0 0.027,0 0.041,0.01 0.02,-10e-4 0.04,0 0.06,-0.01 2.5485,0.046 4.9955,1.0147 6.8828,2.7344 0.081,0.073 0.1733,0.1325 0.2734,0.1758 0.033,0.011 0.066,0.02 0.1,0.027 0.08,0.027 0.1623,0.043 0.2461,0.049 0.017,0 0.035,0.01 0.053,0.01 h 12.2207 c 2.2393,0 4.033,1.7925 4.0352,4.0312 -0.017,2.2201 -1.809,3.9845 -4.0293,3.9688 h -0.01 -14.5723 c -0.5523,0 -1,0.4477 -1,1 0,0.5522 0.4477,1 1,1 h 16.8984 c 0.1772,-2e-4 0.351,-0.047 0.5039,-0.1368 l 14.795,-8.6523 c 1.8422,-1.078 4.275,-0.4866 5.3886,1.4648 1.0912,1.9286 0.4339,4.3668 -1.4609,5.4668 v 0 l -16.82,9.8375 -24.6936,0.024 v 0 C 16.138,61.9998 13.8502,61.2031 12.002,59.7463 V 43.2541 c 1.8468,-1.4572 4.1354,-2.2539 6.4981,-2.2539 z" color="#000" paint-order="stroke fill markers" style="-inkscape-stroke:none" fill="#000000" class="color000000 svgShape"></path>
  </g>
</svg>
