<svg xmlns="http://www.w3.org/2000/svg" enable-background="new 0 0 64 64" viewBox="0 0 64 64" id="SolarEnergy">
  <polygon fill="#8de683" points="52 16 32 16 1 48 20 48" class="color8dc63f svgShape"></polygon>
  <circle cx="12" cy="12" r="7" fill="#ffc107" class="colorffde17 svgShape"></circle>
  <rect width="18" height="5" x="20" y="53" fill="#ffc107" class="colorffde17 svgShape"></rect>
  <polygon fill="#ffc107" points="32 48 63 16 52 16 20 48" class="colorffde17 svgShape"></polygon>
  <path fill="#d7e7f7" d="M39 22h-6c-.553 0-1-.447-1-1s.447-1 1-1h6c.553 0 1 .447 1 1S39.553 22 39 22zM47 27h-6c-.553 0-1-.447-1-1s.447-1 1-1h6c.553 0 1 .447 1 1S47.553 27 47 27zM24 37h-6c-.553 0-1-.447-1-1s.447-1 1-1h6c.553 0 1 .447 1 1S24.553 37 24 37z" opacity=".8" class="colorffffff svgShape"></path>
  <path fill="#0b3806" d="M0.079,48.39C0.235,48.76,0.599,49,1,49h18v4v5v5c0,0.553,0.447,1,1,1s1-0.447,1-1v-4h16v4
			c0,0.553,0.447,1,1,1s1-0.447,1-1V42.21l24.718-25.515c0.28-0.288,0.359-0.716,0.203-1.085C63.765,15.24,63.401,15,63,15H32
			c-0.271,0-0.53,0.109-0.718,0.305l-31,32C0.002,47.593-0.077,48.021,0.079,48.39z M36.263,57H21v-3h15.263V57z M37,52H21v-3h11
			c0.271,0,0.53-0.109,0.718-0.305L37,44.275V52z M32.424,17h28.215L31.576,47H3.361L32.424,17z" class="color06381f svgShape"></path>
  <path fill="#0b3806" d="M46 22h6c.553 0 1-.447 1-1s-.447-1-1-1h-6c-.553 0-1 .447-1 1S45.447 22 46 22zM28 27h6c.553 0 1-.447 1-1s-.447-1-1-1h-6c-.553 0-1 .447-1 1S27.447 27 28 27zM23 32h6c.553 0 1-.447 1-1s-.447-1-1-1h-6c-.553 0-1 .447-1 1S22.447 32 23 32zM36 32h6c.553 0 1-.447 1-1s-.447-1-1-1h-6c-.553 0-1 .447-1 1S35.447 32 36 32zM37 35h-6c-.553 0-1 .447-1 1s.447 1 1 1h6c.553 0 1-.447 1-1S37.553 35 37 35zM19 40h-6c-.553 0-1 .447-1 1s.447 1 1 1h6c.553 0 1-.447 1-1S19.553 40 19 40zM32 40h-6c-.553 0-1 .447-1 1s.447 1 1 1h6c.553 0 1-.447 1-1S32.553 40 32 40zM4 12c0 4.411 3.589 8 8 8s8-3.589 8-8-3.589-8-8-8S4 7.589 4 12zM12 6c3.309 0 6 2.691 6 6s-2.691 6-6 6-6-2.691-6-6S8.691 6 12 6zM20.092 3.106l-1.348 1.477c.448.409.859.86 1.224 1.34l1.594-1.207C21.125 4.139 20.63 3.598 20.092 3.106zM15.53 23.439c.692-.213 1.371-.491 2.016-.828l-.926-1.773c-.537.281-1.102.513-1.678.689L15.53 23.439zM11.354 21.945l-.133 1.996c.258.017.518.025.779.025.465 0 .935-.027 1.397-.081l-.23-1.986C12.563 21.97 11.948 21.986 11.354 21.945zM6.27 20.163c-.496-.347-.962-.741-1.387-1.172l-1.424 1.404c.509.517 1.068.989 1.664 1.406L6.27 20.163zM9.071 23.606l.486-1.939c-.585-.147-1.161-.35-1.712-.602l-.832 1.818C7.675 23.187 8.367 23.43 9.071 23.606zM20.931 7.463c.274.541.498 1.108.667 1.687l1.92-.561c-.203-.695-.473-1.378-.802-2.028L20.931 7.463zM1.019 16.812c.294.663.649 1.304 1.058 1.902l1.652-1.125c-.34-.5-.637-1.034-.882-1.587L1.019 16.812zM12.156-.032l-.025 2c.608.008 1.216.07 1.806.188l.387-1.963C13.615.053 12.886-.022 12.156-.032zM9.983.135c-.719.122-1.428.31-2.105.558l.688 1.879c.563-.207 1.154-.363 1.754-.466L9.983.135zM16.414.805l-.736 1.859c.56.222 1.104.497 1.62.819l1.061-1.695C17.74 1.401 17.086 1.07 16.414.805zM23.219 16.234l-1.869-.713c-.214.562-.482 1.112-.799 1.633l1.711 1.037C22.64 17.567 22.962 16.908 23.219 16.234zM24 11.967c0-.419-.021-.832-.062-1.24l-1.99.201C21.982 11.27 22 11.616 22 11.967c0 .607-.055 1.216-.163 1.81l1.967.359C23.934 13.425 24 12.694 24 11.967zM18.147 19.854l1.229 1.578c.571-.445 1.106-.946 1.59-1.489l-1.494-1.33C19.068 19.066 18.623 19.484 18.147 19.854zM4.142 2.898l1.311 1.51c.457-.396.953-.753 1.474-1.06L5.91 1.626C5.286 1.993 4.69 2.422 4.142 2.898zM.1 10.413l1.982.258c.078-.598.211-1.193.396-1.773L.573 8.29C.352 8.983.192 9.697.1 10.413zM.323 14.744l1.945-.461c-.139-.587-.225-1.19-.255-1.796l-1.998.102C.053 13.314.156 14.04.323 14.744zM1.431 6.281L3.19 7.23c.285-.528.623-1.038 1.004-1.516L2.632 4.467C2.176 5.037 1.771 5.647 1.431 6.281z" class="color06381f svgShape"></path>
</svg>
